<?xml version="1.0" standalone="yes"?>
<svg xmlns="http://www.w3.org/2000/svg" width="350" height="568">
<path style="fill:#dcd6c4; stroke:none;" d="M0 0L0 7L0 20L0 46L0 138L0 568L350 568L350 47L350 0L335 0L329 0L318 0L295 0L278 0L267 0L0 0z"/>
<path style="fill:#ea6080; stroke:none;" d="M316 8L316 10L318 10L318 8L316 8M320 8L320 10L322 10L322 8L320 8M323.667 9.33331L324 9.66669L324.333 9.66669L324 9.33331L323.667 9.33331M41 21L41.7778 21.6389L42.25 21.5278L43.0556 21.5278L45 21L44.6389 22.25L44.9444 22.6667L45.2778 23.4445L46.3889 25.0833L47.3056 26.9445L47.5556 27.5L48 29L46.5 28.2778L45.9444 28.25L45 28.0555L44.0556 28.0278L42 28L42.7222 29.1389L43.25 29.3333L45 30L45 35L47 35L47 31L49 33L50 33L52 32L51.6667 30.5L51.3889 30L50.6667 28.5L50 27L51.3889 27.3611L51.75 27.6945L52.4444 28.25L53.5278 29.6389L54.0833 30.3611L54.7222 31.1389L56.0278 32.6389L56.5278 33.3333L57.0556 34.5834L57 36L54 33L52.5 33.6945L51.9444 34.0833L50.9722 34.6667L49.2778 35.6667L48.0833 36.0834L47 36L46.3056 37.25L45.9444 37.6667L45.3889 38.4445L44.6111 40.0833L44.75 41.9445L44.8889 42.5L46 44L44.6111 44.1111L43.6667 44.6667L43.3333 45.2778L43.1111 45.6111L43 47L41.5556 46.5834L40.4444 46.25L39 46L38.3056 47.5L38.3333 48.0555L38.25 49.0555L38.3333 50L38.3889 52L38.3056 53L38.0833 54.9445L38 56.5L38 58L39 59L41 59L40.6667 60.4167L40.3611 60.8333L39.8889 61.6389L39.3056 62.3055L38.0833 63.6945L36.9722 65.1111L36.4444 65.75L35.75 66.3055L35.3889 66.6389L34 67L34.6667 68.3333L34.8611 68.6945L36 69L35.75 70.4445L35.4167 71.5555L35 73L36.1111 73.7778L36.4722 75.1111L36.4167 76.0278L35.8333 78L35.4722 79L35.1667 81L35.5 82.9722L35.9444 83.9167L37.1667 85.6111L38.6389 87.1389L39.3611 87.8611L40.1111 88.5833L40.7778 89.3333L41.25 89.75L42 91L43.5 91.1111L44.0556 91.3055L45.0556 91.6111L47 92.3889L49 92.8889L51 93L53 93L54 93L56 93.1111L58 93.6111L60 94.3889L61 94.6945L63 95.0555L64 95.2222L65 95.3889L67 95.8611L68 96.1389L69 96.3611L70 96.6111L72 96.9167L73 96.9722L75 97.0833L77 97.3889L79 97.8055L80 98L82 98.4167L84 99L86 99.5833L87 99.7778L89 100L90 100.083L92 100.389L94 100.778L96 101.056L98 101.389L99 101.611L100 101.806L102 102.194L103 102.389L105 102.778L106 102.917L107 102.972L109 103.083L110 103.222L112 103.639L113 103.861L114 104.139L115 104.361L116 104.611L118 104.944L119 105.056L121 105.389L122 105.611L124 105.917L126 106.083L127 106.222L128 106.389L130 106.778L131 106.917L133 107.083L134 107.222L136 107.611L138 107.944L139 108.056L141 108.389L142 108.639L144 109.139L145 109.361L147 109.861L149 110.361L150 110.611L152 110.917L154 111L156 110.972L156.944 110.944L157.944 110.75L158.5 110.722L160 110L159.722 108.5L159.056 106.944L158.5 106L156.917 104L155 102L154 101L152 99L148 95L146 93.0278L144.028 91.2222L142.222 89.6111L140.611 88L139.778 87.1945L138.944 86.3889L138.056 85.6389L136.417 84.1389L135 82.6945L133.583 81.3055L132.778 80.5833L130.972 78.9167L129 77L127 75L124 72L113 61L103 51L100 48L98 46.0278L96.0278 44.2222L95.0833 43.4167L93.4167 42L92.6944 41.3333L91.3333 40L90.6667 39.3055L90 38.6111L89.3056 37.8611L87.8611 36.3611L87.1389 35.6389L85.6389 34.1389L84.1389 32.6945L83.3611 32L81.8611 30.6111L80.3611 29.1389L79.6111 28.3611L78.7778 27.6111L76.9722 25.9445L76 25.0555L74 23.4722L72 22.25L71 21.7778L70 21.25L68 20.3889L66 19.6945L64 19.1945L62 18.8055L60 18.3889L59 18.2222L58 18.0833L56 18L55 18L54 18L53 18L51 18.0833L49 18.3889L48 18.6111L46 19L45 19.2222L44.0556 19.4445L43.0556 19.8611L42.5 20.0278L41 21z"/>
<path style="fill:#312e28; stroke:none;" d="M169 125L168.972 127.056L168.917 128.056L168.611 130L168.389 130.944L168.222 131.944L168.083 132.5L168 134L166.5 134.278L164.972 134.861L164.083 135.278L162.389 136.472L161.611 137.222L159.917 138.778L158 140.139L157 140.722L156 141.167L155 141.611L153 142.389L151 143.25L150 143.75L148 144.611L146 145.389L145 145.833L144 146.278L142 147.472L140 149.083L138 151L136.083 153L134.472 155L133.833 156L132.528 158L130.917 159.972L129.972 160.889L129 161.667L127 162.667L125 162.972L123 163L122 163.028L121 163.083L119 163.417L117 164.028L115 164.833L114.028 165.278L112.25 166.472L111.5 167.25L110.5 169.028L110.25 170L110.083 171L110.083 173L110.472 175L110.833 176L111.528 178L111.778 179L112.194 181L112.389 182L112.611 183L112.917 185L112.972 186L113 188L113 190L113 194L113 207L113 245L113 317L113 341L113 349L113 352L113 353L113.083 355L113.389 357L113.611 358L113.917 360L114 362L114 363L114 365L114 371L114 390L114 445L114 509L114 512L114 513L114 514L113.917 516L113.528 518L112.75 520L112.25 521L111.861 522L111.472 523L111.111 525L111.111 526L111.5 528L111.944 528.972L112.5 529.917L114.083 531.528L116 532.75L117 533.222L118 533.75L120 534.611L122 535.333L124 536L125 536.306L126 536.611L127 536.861L128 537.139L130 537.611L131 537.806L133 538.194L135 538.611L136 538.778L138 539L139 539.083L141 539.389L142 539.611L144 539.917L145 539.972L147 540L148 540.028L149 540.083L151 540.389L152 540.611L154 540.917L155 540.972L157 541L158 541L160 541L162 541.083L164 541.389L165 541.611L167 541.917L168 541.972L170 542L172 542L178 542L196 542L209 542L213 542L214 542L216 541.972L217 541.917L219 541.611L220 541.389L222 541.083L223 541.028L224 541L226 541L232 541L233 541L235 540.972L236 540.917L238 540.611L239 540.389L241 540.083L242 540.028L244 540L245 540L249 540L262 540L262 538L268 538L267.722 536.5L267.167 535L266.806 534.056L266.5 533.5L266 532L267.5 531.972L269.056 531.694L270 531.389L271.889 530.556L272.694 530.056L273.222 529.833L274 529L273.278 528.278L272.75 528.25L271 528L270.917 526.5L270.778 526L270.583 525L270 523L268.5 522.917L267.944 522.778L266.083 522.5L265.278 522.5L264.083 522.889L263 524L262.417 521.944L262.222 520.944L262.083 520L262 518L262 516L262 511L262 494L262 460L262 449L262 445L262 443L262.083 441L262.389 439L262.611 438L262.917 436L263 434L263 433L263 430L263 423L263 401L263 334L263 313L263 306L263 304L263.028 302L263.083 301L263.389 299L263.611 298L263.917 296L264 294L264 293L264 290L264 281L264 256L264 191L264 182L264 180L264 179L264.083 177L264.472 175L265.167 173L265.528 172L265.806 170L265.667 169L264.889 167.028L263.583 165.25L261.917 163.917L260.972 163.417L260 163.028L258 162.417L256 162.056L255 161.944L253 161.611L251 161.222L250 161.083L248 160.889L246.028 160.278L244.25 158.889L243.472 157.972L242.25 156L241.75 155L240.528 153L239.75 152L237.972 150.028L236 148.25L235 147.5L233 146.417L231 145.611L229 144.833L228 144.444L227 144.167L226 143.861L225 143.611L223 142.889L222 142.389L220 141.111L218 139.611L217 138.806L215 137.222L214 136.472L212 135.25L210.083 134.139L208.5 132.75L207.472 130.972L206.861 129L206.306 127L205.611 125L205.194 124L204.389 122L203.583 120L202.583 118L201.306 116.028L200.583 115.083L199.778 114.222L198.917 113.417L197.972 112.722L197 112.083L195 111.083L194 110.694L192 110L190 109.333L188 108.694L186 108.194L184 107.806L183 107.583L182 107.306L180 106.694L179 106.417L178 106.194L176 105.806L175 105.583L174 105.306L172 104.694L171 104.417L169 104.083L168 104.028L167 104.028L165 104.333L164 104.722L163.028 105.333L161.25 107.028L160.5 108L159.5 110L159.25 111L159.083 112L159 114L159 115L159.111 117L159.333 117.972L159.722 118.917L161.111 120.528L162.028 121.167L164 122.389L165.944 123.583L166.944 124.111L167.5 124.472L169 125z"/>
<path style="fill:#ea6080; stroke:none;" d="M162 105L163 106L162 105M166 105L167 106L166 105z"/>
<path style="fill:#dcd6c4; stroke:none;" d="M162 108L162 110L164 112L160 112L160.083 114.056L160.389 115.944L160.75 117.5L161 119L163 120L164 120L165.972 118.528L166.806 117.722L167.5 116.917L168.5 115L168.917 113L169 111L169 109.056L169 106L167.5 106L165.944 106.111L165.056 106.278L163.5 106.861L162 108M171 107L171.306 109.056L171.389 110.056L171.222 112L170.944 113L170.167 115L169.722 116L168.556 118L167.222 119.944L166.75 120.5L166 122L167.472 122.528L168.806 123.5L170.056 125.083L170.5 126.028L170.833 128L170.583 130L170 132L169.333 134L168.694 135.944L168.417 136.944L168.25 137.5L168 139L170.056 139.028L171.056 139.083L173 139.389L174 139.611L175 139.778L176 139.917L178 140.083L179 140.222L181 140.611L183 140.917L184 140.972L186 141L188 141L190 141L192 140.972L193 140.917L195 140.611L196 140.389L198 140.083L199 140.028L201 139.972L202 139.917L203.944 139.556L205.5 138.972L207 138L206.75 136.5L206.361 134.944L206.139 134L205.861 133L205.611 132L205.306 131L205 130L204.333 128L203.667 126L202.972 124L202.611 123L201.75 121L201.222 120L200.75 119L199.528 117.083L198.75 116.222L197.917 115.417L196 114.028L195 113.417L193 112.417L192 112.028L190 111.389L189 111.139L187 110.639L186 110.361L185 110.139L184 109.861L183 109.639L181 109.139L180 108.861L179 108.639L178 108.361L177 108.139L175 107.639L174.056 107.389L173.056 107.222L172.5 107.083L171 107z"/>
<path style="fill:#ea6080; stroke:none;" d="M174 107L175 108L174 107M182 107L183 108L182 107M169 108L169 113L169.722 112.222L169.75 111.694L169.917 110.083L169.75 109.306L169.722 108.778L169 108M161 109L161.111 110.389L161.333 110.722L161.667 111.333L162.611 111.889L164 112L162.75 110.25L162.389 109.722L161 109M182 109L183 110L182 109M190 109L191 110L190 109M186 110L187 111L186 110M193 110L194 111L193 110z"/>
<path style="fill:#312e28; stroke:none;" d="M164 112L164 114L166 114L166 112L164 112z"/>
<path style="fill:#ea6080; stroke:none;" d="M197 112L198 113L197 112M196 114L197 115L196 114M168 115L169 116L168 115M160 116L161 117L160 116M164 119L165 120L164 119M166 120L167 121L166 120M162 121L163 122L162 121M164 122L165 123L164 122M204 122L205 123L204 122M169 123L170 124L169 123M167 124L168 125L167 124M168 125L169 126L168 125M203 125L204 126L203 125M204 128L205 129L204 128M168 130L169 131L168 130M170 130L171 131L170 130M205 131L206 132L205 131M207 131L208 132L207 131M167 133L168 134L167 133M165 134L166 135L165 134M210 134L211 135L210 134M163 135L164 136L163 135z"/>
<path style="fill:#dcd6c4; stroke:none;" d="M165 136L162.944 138.056L161.944 139.056L160 140.889L159 141.694L158 142.361L156 143.306L155 143.667L154 144.028L153 144.389L151 145.25L150 145.778L149 146.222L148 146.778L147 147.222L146 147.778L145 148.25L143 149.472L142 150.25L141 151.083L139.083 153L137.389 155L136.639 156L135.861 157L134.361 159L133.611 160L131.917 161.917L130.972 162.778L129.028 164.389L128.111 165.222L126.722 167.028L126.333 167.944L126.028 169.5L126 171L127.5 171.083L128.056 171.222L129.056 171.389L130 171.611L132 171.917L133 171.972L135 172.028L136 172.083L138 172.389L139 172.611L141 172.917L143 173L145 173L146 173L148 173.028L149 173.083L151 173.389L152 173.611L154 173.917L155 173.972L157 174L160 174L170 174L199 174L210 174L214 174L216 173.972L217 173.917L219 173.611L220 173.389L222 173.083L223 173.028L225 173L226 173L228 173L230 172.917L232 172.611L233 172.389L235 172.083L236 172.028L238 171.972L239 171.917L241 171.611L243 171.222L244 171.083L246 170.917L246.944 170.778L247.944 170.583L250 170L249.639 168.528L248.667 167.167L247.889 166.389L246.083 164.778L245.222 163.917L243.694 162L242.389 160L241.833 159L241.25 158L240.167 156L239.611 155L238.972 154L237.583 152.083L235.917 150.472L234.972 149.861L233 148.778L232 148.25L230 147.389L229 147.028L228 146.667L227 146.333L225 145.667L223 144.917L221 143.944L220 143.361L218 142.167L217 141.528L215 139.944L214 139.056L212.056 137.5L210.5 136.528L209 136L209.25 137.444L209.583 138.556L210 140L208.5 140.5L207.944 140.806L206 141.528L205 141.75L204 141.917L203 141.972L201 142.083L200 142.222L198 142.611L197 142.778L196 142.917L194 143L192 143L188 143L186 143L185 143L183 142.972L182 142.917L180 142.611L179 142.389L177 142.083L175 141.972L174 141.917L172 141.611L171 141.389L169 141L167.056 140.583L165 140L166.333 138L166.694 137.444L167 136L165 136z"/>
<path style="fill:#ea6080; stroke:none;" d="M208 136L209 137L208 136M210 136L211 137L210 136M161 137L162 138L161 137M215 137L216 138L215 137M160 138L161 139L160 138M206 138L207 139L206 138M216 138L217 139L216 138M159 139L160 140L159 139M172.667 139.333L172.667 139.667L173.333 139.667L173.333 139.333L172.667 139.333M214 139L215 140L214 139M217 139L218 140L217 139M166 140L167 141L166 140M195 140L195.722 140.722L196.25 140.75L198 141L197.278 140.278L196.75 140.25L195 140M215 140L216 141L215 140M205.667 141.333L205.667 141.667L206.333 141.667L206.333 141.333L205.667 141.333M216 141L217 142L216 141M158 142L159 143L158 142M179.667 142.333L179.667 142.667L180.333 142.667L180.333 142.333L179.667 142.333M221 142L222 143L221 142M150 143L151 144L150 143M155 143L156 144L155 143M148 144L149 145L148 144M152 144L153 145L152 144M221 144L222 145L221 144M150 145L151 146L150 145M230 145L231 146L230 145M227 146L228 147L227 146M146 147L147 148L146 147M236 148L237 149L236 148M234 149L235 150L234 149M237 149L238 150L237 149M138 150L139 151L138 150M136 152L137 153L136 152M238 153L239 154L238 153M136 156L137 157L136 156M243 158L244 159L243 158M242 160L243 161L242 160M252.667 161.333L253 161.667L253.333 161.667L253.333 161.333L252.667 161.333M128 162L129 163L128 162M118 163L119 164L118 163M244 163L245 164L244 163z"/>
<path style="fill:#dcd6c4; stroke:none;" d="M249 163L249.361 164.25L249.694 164.667L250.778 166.167L251.306 167.028L251.639 167.528L252 169L253.5 168.667L254 168.389L255.5 167.667L257 167L256.639 168.417L255.667 169.639L254.889 170.278L253 171.389L251 172.111L250 172.361L249 172.611L247 172.944L246 173.056L244 173.389L243 173.611L241 173.917L240 173.972L238 174.028L237 174.083L235 174.389L234 174.611L232 174.917L231 174.972L229 175L228 175.028L227 175.083L225 175.389L224 175.611L222 175.917L221 175.972L219 176L217 176L210 176L186 176L162 176L155 176L153 176L151 175.972L150 175.917L148 175.611L147 175.389L145 175.083L144 175.028L142 175L140 175L139 174.972L138 174.917L136 174.611L135 174.389L133 174.083L131 173.972L130 173.917L128 173.611L127 173.361L125 172.861L124 172.611L122 171.889L120.111 170.75L118.778 169.472L118 168L119.5 168.667L121 169.389L121.5 169.667L123 170L123.972 168.5L124.139 168L124.722 166.5L125 165L122.944 165L121.944 165.028L121 165.083L119 165.417L118 165.694L117 166.028L116 166.417L114.111 167.5L112.722 169.083L112.333 170.028L112.111 172L112.472 174L113.167 176L113.556 177L113.833 178L114.361 180L114.611 181L114.917 183L115 185L115 186L115 189L115 201L115 317L115 348L115 359L115 362L115 364L115.083 366L115.389 368L115.611 369L115.917 371L116 373L116 374L116 377L116 384L116 407L116 475L116 502L116 511L116 514L116 515L115.917 517L115.528 519L114.833 521L114.472 522L114.083 524L114.111 526L114.722 527.917L115.333 528.75L117.028 530.139L119 531.167L120 531.611L122 532.333L124 533L126 533.611L127 533.861L129 534.389L131 535L133 535.583L135 536L136 536.194L137 536.389L139 536.778L141 536.972L143 537.028L144 537.083L146 537.389L147 537.611L149 537.917L150 537.972L152 538L153 538L155 538L158 538L159 538L161 538.028L162 538.083L164 538.389L165 538.611L167 538.917L168 538.972L170 539L171 539L174 539L176 539L178 539.028L179 539.083L181 539.389L182 539.611L184 539.917L185 539.972L187 540L188 540L190 539.917L192 539.611L193 539.389L195 539.083L197 539L199 539L202 539L213 539L217 539L219 538.972L220 538.917L222 538.611L223 538.389L225 538.083L226 538.028L228 538L230 538L231 538L233 537.917L235 537.583L237 537L239 536.417L241 536.056L242 535.944L244 535.611L245.944 535.222L246.5 535.083L248 535L247.222 534.278L246.694 534.25L245.889 534.083L244.972 534.111L243 534.389L242 534.611L240 534.917L238 535.056L237 535.139L235 535.222L233 535.139L232 535.056L231 535.028L230 535L228 535L226 535.028L224 535.306L223 535.583L222 535.917L220 536.306L219 536.278L217 536.083L215 536L214 536L211 536L206 536L204 536L202 535.972L201.028 535.889L199.333 535.333L198.361 534.389L198 533L199.5 533.639L200.056 533.528L201.056 533.556L202 533.361L204 533.083L205 533.028L207 533L207.944 533L211 533L210.917 531.583L211.028 531.222L211.25 530.417L212 529L210.528 528.222L210.028 527.722L208.444 526.306L207.667 525.722L207.25 525.361L206 525L206.306 526.194L206.667 526.583L208 528L206.333 528.194L204.806 528.028L203.306 527.361L202.361 526.389L202 525L200.528 525.111L199.167 525.694L197.667 526.806L197.25 527.25L196 528L197 527L197 525L196 525L196 527L195.278 525.556L195.25 525L195 523L197.056 523.306L198.056 523.389L200 523.389L202 523.444L203 523.556L205 523.611L206 523.583L208 523.611L208.944 523.583L209.944 523.5L212 523L212.611 525.056L212.861 526.056L213.472 527.889L213.889 528.667L214.778 529.639L216 530L215.778 527.944L215.75 526.944L215.556 525L215.222 523.056L215.083 522.5L215 521L217.056 521.083L218.972 521.5L219.889 521.889L221.222 522.778L222 524L224.056 523.389L225.056 523.139L226 522.861L226.944 522.639L228.5 522.25L230 522L230 521L228 521L229.833 519.944L231.333 519L231.75 518.667L233 518L233 519L234 521L235.389 520.472L235.722 520.139L236.639 519.222L237 518L241 518L241 515L238.944 515.028L237.944 515.083L236 515.389L235 515.611L233 515.917L232 515.972L231 516L229 516L224 516L218 516L216 516L214 515.917L212 515.611L211 515.389L209 515.056L208 514.944L206 514.583L205 514.278L204 513.917L202 512.917L201 512.278L199 510.778L197.083 508.972L196.25 508L195.5 507L194.917 506L194.417 505L193.667 503L192.972 501L192.611 500L192.194 499L191.389 497L190.611 495L190.167 494L189.75 493L189.222 492L188.75 491L187.528 489.083L185.917 487.5L184.972 486.944L183 486.333L181.056 486.472L180.056 486.861L178 488L178 491.056L178 492L178.111 494L178.722 496L180.111 498L181 499L181.889 500L183.361 502L183.861 503L184.194 504L184.361 506L184.194 507L183.361 508.972L181.889 510.694L180.972 511.361L180 511.889L178 512.667L177 513L175 513.583L173 514L171 514.389L170 514.611L168 514.917L166 515L164 515L160 515L154 515L152 515L151 514.972L150 514.917L148 514.611L147 514.389L146 514.222L145 514.056L144 513.944L142 513.611L141 513.361L139 512.861L138 512.611L137 512.306L135 511.583L133 510.5L131.083 508.917L130.25 507.972L129.5 507L128.528 505L128.333 504L128.528 502L129.5 500L131.056 498.083L132.778 496.389L133.583 495.611L134.278 494.778L134.917 493.917L135.917 492L136.278 491L136.583 490L136.917 488L136.972 487L137 485L137 484L137 481L137 471L137 469L137 468L136.917 466L136.778 465L136.306 463L135.583 461L134.5 459L133.778 458L133 457L131.417 455L130.111 453L129.333 451L129.278 449L129.5 448L130.5 446.028L131.25 445.083L132.083 444.25L133.028 443.472L135 442.278L136 441.833L138 441.028L140 440.417L142 440.056L143 439.944L145 439.611L146 439.389L148 439.083L149 439.028L151 438.917L153 438.611L154 438.389L156 438.167L158 438.389L159 438.611L161 438.917L162 438.972L164 439.028L165 439.083L167 439.389L168 439.611L170 440L172 440.417L173 440.694L175 441.389L176 441.833L177 442.278L179 443.472L180.917 445.083L181.75 446.028L182.5 447L183.5 449L183.722 450L183.833 451L183.5 453L182.528 455L181.139 457L180.389 458L179.722 459L178.639 461L178.333 462L178.194 463L178.5 465L179.5 466.889L181.083 468.278L182.028 468.667L183 468.861L184 468.889L186 468.528L187 468.139L189 467.222L190 466.75L191.917 465.528L193.583 463.917L194.278 462.972L194.889 462L195.361 461L195.778 459L195.278 457L194.667 456L193.889 455L193 454L192.139 453L190.944 451L190.833 449L191.139 448L192.306 446.028L193.111 445.083L195 443.417L197 442.111L198 441.611L199 441.222L201 440.611L203 440L205 439.417L207 439.083L208 439.028L209 439L211 439L217 439L220 439L221 439L222 439L224 439.083L226 439.472L228 440.194L229 440.611L231 441.417L233 442.417L234.917 443.694L236.528 445.222L237.139 446.083L237.722 447.028L238.444 449L238.5 450L238.417 451L238.028 451.972L236.75 453.778L235.917 454.583L234 455.917L232 456.917L231 457.306L229 458.083L228 458.556L227 459.083L225 460.417L223 462.083L222 463.028L221 464L219 465.972L217 467.778L215.111 469.389L213.722 471.028L213.111 472.5L213 474L215.056 474.083L217 474.389L218 474.611L220 474.944L221 475.056L223 475.417L224 475.694L226 476.417L228 477.417L229.917 478.694L230.778 479.417L232.389 481.083L234.056 483L235.75 485L236.528 486L237.722 488L238.167 489L238.611 490L238.972 491L239.694 493L240.639 494.917L242.111 496.611L243.972 498.222L244.917 499.083L246.528 501L247.139 502L247.722 503L248.556 505L248.833 506L249.361 508L249.611 509L249.917 511L249.972 512L250 514L250 515L250 518L250 520L250.028 522L250.111 523L250.306 524L251 526L251.389 527L251.694 528L251.861 529.972L251.722 530.889L251.139 532.222L250 533L250.778 533.694L251.306 533.639L252.111 533.639L254 533L255 532.583L256.972 531.861L257.917 531.528L259.5 530.5L260.5 528.917L260.75 527.972L260.889 526L260.583 524L260.306 523L260 522L259.417 520L259.083 518L259.028 517L259 515L259 514L259 508L259 505L259 504L259.028 502L259.083 501L259.389 499L259.778 497L259.917 496L260 494L260 492L260 489L260 479L260 450L260 447L260 446L260.028 444L260.083 443L260.389 441L260.778 439L260.917 438L261 436L261 435L261 432L261 425L261 404L261 339L261 336L261 334L261.028 332L261.083 331L261.389 329L261.778 327L261.917 326L262 324L262 322L262 318L262 307L262 273L262 211L262 189L262 182L262 180L262 179L262.083 177L262.417 175L263 173L263.583 171.056L263.75 170.5L264 169L261.944 167.194L260.944 166.444L259 165.417L257 164.694L256 164.417L255 164.194L253 163.806L251.056 163.389L250.5 163.25L249 163z"/>
<path style="fill:#ea6080; stroke:none;" d="M251.667 163.333L251.667 163.667L252.333 163.667L252.333 163.333L251.667 163.333M115 164L116 165L115 164M245 164L246 165L245 164M256 164L257 165L256 164M113 165L114 166L113 165M118 165L119 166L118 165M246 165L247 166L246 165M259 165L260 166L259 165M264 166L265 167L264 166M249 167L250 168L249 167M262 167L263 168L262 167M110 168L111 169L110 168M119 168L120 169L119 168M254 168L255 169L254 168M125 169L126 170L125 169M256 169L257 170L256 169M248 170L249 171L248 170M120 171L121 172L120 171M241 171L241.722 171.722L242.25 171.75L244 172L243.278 171.278L242.75 171.25L241 171M253 171L254 172L253 171M263 171L264 172L263 171M123 172L124 173L123 172M136 172L136.722 172.722L137.25 172.75L139 173L138.278 172.278L137.75 172.25L136 172M265 172L266 173L265 172M127 173L127.722 173.722L128.25 173.75L130 174L129.278 173.278L128.75 173.25L127 173M148 173L148.778 173.722L149.25 173.75L150.056 173.944L152 174L151.222 173.278L150.75 173.25L149.944 173.056L148 173M219 173L219.722 173.722L220.25 173.75L222 174L221.278 173.278L220.75 173.25L219 173M112 174L113 175L112 174M233.667 174.333L233.667 174.667L234.333 174.667L234 174.333L233.667 174.333M264 174L264 177L264.694 176.25L264.694 175.194L264.694 174.75L264 174M147 175L147.722 175.722L148.25 175.75L150 176L149.278 175.278L148.75 175.25L147 175M222 175L222.722 175.722L223.25 175.75L225 176L224.278 175.278L223.75 175.25L222 175M111 177L112 178L111 177M112.333 182.667L112.333 183.333L112.667 183.333L112.667 182.667L112.333 182.667z"/>
<path style="fill:#312e28; stroke:none;" d="M146 187L146.583 189.056L146.778 190.056L146.917 191L147 193L146.972 194L146.917 195L146.583 196.944L146 199L147.139 198.639L147.333 198.278L147.722 197.667L147.889 196.944L148 195.5L148 194L153 194L153.556 191.944L153.667 190.944L153.25 189.111L151.889 187.722L150 187.111L149.056 187.028L148.056 187L146 187M155 187L155.583 189.056L155.917 190.944L155.972 191.944L156 194L156.722 193.222L156.75 192.694L156.944 191.889L156.972 190.028L156.722 188.333L156.139 187.361L155 187M168 187L168.417 188.444L168.75 189.556L169 191L169.722 190.222L169.722 189.722L169.833 189L169.333 187.722L169.139 187.361L168 187M189 187L189 189L191 189L191 187L189 187z"/>
<path style="fill:#ea6080; stroke:none;" d="M191 187L192 188L191 187z"/>
<path style="fill:#312e28; stroke:none;" d="M194 190L195.389 189.278L195.75 188.75L197 187L195.611 187.111L195.278 187.333L194.667 187.667L194.111 188.611L194 190M204 187L204.25 188.5L204.611 190.056L204.917 192L204.972 193L205 194.944L205 197L205.722 196.222L205.75 195.694L205.944 194.889L205.972 193.972L206 192L205.972 190.028L205.889 189.111L205.722 188.333L205.139 187.361L204 187z"/>
<path style="fill:#ea6080; stroke:none;" d="M206 187L206.778 187.972L207.25 188.139L208.528 188.722L210 189L209.639 187.861L208.722 187.278L207.472 187.028L206 187z"/>
<path style="fill:#312e28; stroke:none;" d="M226 187L226.25 188.5L226.611 190.056L226.917 192L226.972 194L226.917 195L226.611 196.944L226.25 198.5L226 200L227.167 199.639L227.389 199.333L227.972 198.722L229 197L229.528 198.389L229.861 198.722L230.778 199.639L232 200L231.639 198.528L230.722 197.25L230.389 196.778L229 196L230.75 194L231.278 193.444L232 192L230.611 192.111L229.667 192.667L229.361 192.861L229 194L228.278 192.5L228.25 191.944L228.056 190.944L228 190.028L227.722 188.333L227.139 187.361L226 187z"/>
<path style="fill:#dcd6c4; stroke:none;" d="M148 188L148 193L150 192.944L151 192.75L151.5 192.722L153 192L153 189L152 188L148 188M206 188L206 199L208.028 198.75L208.972 198.5L210.5 197.5L211.5 195.917L211.917 194L212 192.056L212 190L210.5 189.194L209.944 189.028L209 188.667L207.5 188.25L206 188z"/>
<path style="fill:#312e28; stroke:none;" d="M210 188L211 189L210 188z"/>
<path style="fill:#ea6080; stroke:none;" d="M165 189L166 190L165 189z"/>
<path style="fill:#312e28; stroke:none;" d="M173 189L174 190L173 189z"/>
<path style="fill:#ea6080; stroke:none;" d="M189 189L189 198L190.167 197.639L190.417 197.278L190.944 196.722L191.556 195.472L192 194L191.111 193.222L191.056 192.694L190.889 191.944L190.944 190.5L191 189L189 189M204 189L204 192.056L204 194L204.111 195.889L204.278 196.667L204.861 197.639L206 198L205.417 195.944L205.083 194L204.972 192.028L204.944 191.111L204.75 190.306L204.722 189.778L204 189z"/>
<path style="fill:#312e28; stroke:none;" d="M211 189L212 190L211 189M215.667 189.333L215.667 189.667L216.333 189.667L216.333 189.333L215.667 189.333z"/>
<path style="fill:#ea6080; stroke:none;" d="M226 189L226 193L226.722 192.222L226.722 191.722L226.889 191L226.722 189.778L226 189z"/>
<path style="fill:#312e28; stroke:none;" d="M193 190L194 191L193 190M212 190L212 192.056L211.972 193.056L211.917 194L211.583 195.944L211 198L212.139 197.222L212.333 196.694L212.722 195.889L212.972 194L212.944 192.111L212.75 191.306L212.722 190.778L212 190z"/>
<path style="fill:#ea6080; stroke:none;" d="M157 193L158.389 192.889L159.333 192.333L159.639 192.139L160 191L158.25 191.667L157.722 191.861L157 193M169 191L169 198L169.722 197.222L169.75 196.694L169.944 195.889L169.972 194.972L169.944 193.111L169.75 192.306L169.722 191.778L169 191z"/>
<path style="fill:#312e28; stroke:none;" d="M192 191L193 192L192 191z"/>
<path style="fill:#ea6080; stroke:none;" d="M153 192L154 193L153 192z"/>
<path style="fill:#312e28; stroke:none;" d="M160 192L160.25 193.5L160.528 195.056L160.5 196.944L160 199L161.139 198.639L161.722 197.667L161.944 195.972L161.889 195.028L161.722 194.111L161.333 193.306L161.139 192.778L160 192M164 192L164.556 194.056L164.694 195.944L164.417 197.5L164 199L165.139 198.639L165.722 197.667L165.972 195.972L165.972 195.028L165.722 193.333L165.333 192.722L165.139 192.361L164 192M172 192L172.583 194.056L172.917 195.944L172.972 196.944L173 199L173.722 198.222L173.75 197.694L173.944 196.889L173.972 195.028L173.722 193.333L173.139 192.361L172 192M176 192L176.583 194.056L176.778 195.056L176.917 196L177 198L177 198.944L177 199.944L177 202L177.722 201.222L177.75 200.694L177.944 199.889L177.972 198.972L178 197.056L178 196.056L178 194L179 193L180.5 193.083L181 193.222L182 193.417L184 194L183.222 192.861L182.694 192.667L181.889 192.278L180.972 192.111L180 192.028L179.056 192L178.056 192L176 192M190 192L190 194L192 194L192 192L190 192M215 192L215 195.056L215 196L215.028 196.972L215.278 198.667L215.861 199.639L217 200L216.417 197.944L216.083 196L215.944 194.111L215.75 193.306L215.722 192.778L215 192z"/>
<path style="fill:#ea6080; stroke:none;" d="M219 192L220 193L219 192z"/>
<path style="fill:#312e28; stroke:none;" d="M220 192L220.778 192.833L221.306 193.056L222.056 193.556L223.5 194.333L225 195L224.889 193.611L224.278 192.667L222.944 192.111L221.5 192L220 192M219 193L220 194L219 193z"/>
<path style="fill:#ea6080; stroke:none;" d="M156 194L156 198L156.722 197.222L156.722 196.722L156.889 196L156.722 194.778L156 194M183 194L183 197L185 197L185 194L183 194z"/>
<path style="fill:#312e28; stroke:none;" d="M192 194L192.361 195.5L192.694 196.056L193.889 197.889L195.333 199.278L196.583 199.889L198 200L197.222 198.5L196.694 197.944L195.889 196.972L194.056 195.306L193.5 194.778L192 194M218 194L218.028 195.5L218.333 197.028L218.722 197.889L219.333 198.667L220.111 199.278L221.972 199.778L223.667 199.333L224.639 198.389L225 197L223 198L223 199L221.556 198.583L220.444 198.25L219 198L218.944 196.056L218.75 195.25L218.722 194.778L218 194z"/>
<path style="fill:#ea6080; stroke:none;" d="M211 196L212 197L211 196M178 197L178.361 198.389L179.278 199.333L179.611 199.639L181 200L179.75 198.25L179.389 197.722L178 197z"/>
<path style="fill:#312e28; stroke:none;" d="M183 197L184 198L183 197z"/>
<path style="fill:#ea6080; stroke:none;" d="M148 198L149 199L148 198z"/>
<path style="fill:#312e28; stroke:none;" d="M155.667 198.333L155.667 198.667L156.333 198.667L156.333 198.333L155.667 198.333M168.667 198.333L168.667 198.667L169.333 198.667L169.333 198.333L168.667 198.333M182 198L183 199L182 198M189.667 198.333L189.667 198.667L190.333 198.667L190 198.333L189.667 198.333M199.333 198.667L199.333 199.333L199.667 199.333L199.667 199L199.333 198.667M204 198L204.361 199.139L204.722 199.333L205.333 199.722L206.056 199.889L207.5 200L209 200L208.222 199.194L207.694 199.028L206.944 198.667L205.5 198.25L204 198z"/>
<path style="fill:#ea6080; stroke:none;" d="M209.333 198.667L209.333 199.333L209.667 199.333L209.667 199L209.333 198.667z"/>
<path style="fill:#312e28; stroke:none;" d="M210 198L211 199L210 198z"/>
<path style="fill:#ea6080; stroke:none;" d="M218 198L219 199L218 198M168.667 199.333L168.667 199.667L169.333 199.667L169.333 199.333L168.667 199.333M188 199L188.722 199.722L189.25 199.75L191 200L190.278 199.278L189.75 199.25L188 199M203 199L204 200L203 199M214 199L215 200L214 199M219 199L220 200L219 199M232 199L233 200L232 199M176 201L176 203L178 203L177 201L176 201M114 203L114 266L114.722 265.222L114.75 264.694L114.944 263.889L114.972 262.972L115 262L115 260L115 259L115 257L115 252L115 218L115 212L115 210L115 209L115 207L114.972 206.028L114.944 205.111L114.75 204.306L114.722 203.778L114 203M146 204L146.722 204.722L147.25 204.75L149 205L148.278 204.278L147.75 204.25L146 204z"/>
<path style="fill:#312e28; stroke:none;" d="M149 204.389L148 204.611L146 204.917L144 205.083L142 205.389L141 205.639L139 206.167L138 206.444L136 207.278L135 207.833L133.083 209.028L131.417 210.417L130.694 211.222L130.028 212.083L128.917 214L128.278 216L128.167 217L128.5 219L129.5 220.917L131.083 222.611L132.917 224.222L134.5 226.028L135.5 228L135.778 229L136 230L136.389 232L136.611 233L136.917 235L137 237L137 238L137 240L137 248L137 250L137.028 252L137.083 253L137.389 255L137.639 256L138.139 258L138.389 259L139.028 261L139.417 262L140.417 264L141.694 266L142.417 267L144.083 269L145.028 269.972L147 271.75L148 272.528L150 273.75L151 274.222L152 274.778L153 275.222L154 275.778L155 276.222L156 276.75L158 277.556L159 277.833L161 278.361L162 278.639L163 278.861L165 279.361L166 279.611L168 279.944L169 280.056L171 280.389L172 280.611L174 280.917L175 280.972L177 281L179 281L182 281L186 281L187 281L189 280.972L190 280.917L192 280.611L193 280.389L195 280.083L196 280.028L198 280L200 280L201 280L203 279.972L204 279.917L206 279.611L207 279.389L209 279.083L211 278.917L212 278.778L214 278.389L216 278.056L217 277.944L219 277.583L221 277L222 276.667L223 276.333L225 275.611L227 274.75L228 274.222L229 273.75L231 272.528L233 270.917L234 269.972L234.972 269L235.917 268L237.5 266L238.583 264L238.972 263L239.583 261L239.778 260L239.917 259L240.083 257L240.222 256L240.611 254L240.778 253L240.917 252L241 250L241 249L241 248L241 245L241 239L241 237L241 236L240.944 234L240.833 232L240.833 230L240.889 229L241.306 227L242.333 225L244 223L244.889 222L246.278 220L246.889 218L246.972 217L247 216L246.889 214L246.667 213L246.278 212L244.889 210.028L243.972 209.111L242 207.694L241 207.25L239 206.639L237 206.194L236 206L234 205.611L233 205.389L231 205.083L230 205.028L228 204.917L226 204.611L225 204.389L223 204.083L222 204.028L220 204L218 204L216 204L214 204.028L213 204.083L211 204.389L210 204.611L208 204.917L207 204.972L205 205.083L204 205.222L202 205.639L201 205.861L200 206.167L199 206.472L197 207.5L195.028 209.083L194.111 210.028L192.722 212L192.111 214L192 216L192.083 218L192.5 219.972L193.5 221.778L194.25 222.611L196 224.222L196.889 225.083L198.361 227L198.889 228L199.278 229L199.583 230L199.917 232L199.972 233L200 235L200 237L200 240L200 245L200 247L200 249L199.972 250L199.889 251L199.361 253L198.278 254.917L197.583 255.778L196.778 256.583L195.917 257.278L194.972 257.917L193 258.917L192 259.278L190 259.778L188 259.944L186 259.75L185 259.5L183 258.5L182.028 257.75L180.25 255.972L179.5 255L178.5 253L178.222 252L178 251L177.611 249L177.389 248L177.083 246L177 244L177 242L177 237L177 234L177 233L177.028 231L177.25 229L177.944 227.028L178.5 226.083L180.083 224.389L181.028 223.611L182.889 221.917L184.278 220L184.667 219L184.889 218L184.917 216L184.5 214L183.5 212.083L181.917 210.472L180 209.25L179 208.778L177 207.833L176 207.389L174 206.694L173 206.389L172 206.139L170 205.639L169 205.389L167 205.083L166 205.028L164 204.972L163 204.917L161 204.611L160 204.389L158 204.083L157 204.028L155 204L153 204L151 204.083L149 204.389z"/>
<path style="fill:#ea6080; stroke:none;" d="M209.667 204.333L209.667 204.667L210.333 204.667L210.333 204.333L209.667 204.333M225 204L225.778 204.722L226.25 204.75L227.056 204.944L229 205L228.222 204.278L227.75 204.25L226.944 204.056L225 204M140.667 205.333L140.667 205.667L141.333 205.667L141.333 205.333L140.667 205.333M233.667 205.333L233.667 205.667L234.333 205.667L234 205.333L233.667 205.333M238.667 206.333L238.667 206.667L239.333 206.667L239.333 206.333L238.667 206.333M135 207L136 208L135 207M145 207L145.778 207.722L146.25 207.75L147.056 207.944L149 208L148.222 207.278L147.75 207.25L146.944 207.056L145 207z"/>
<path style="fill:#dcd6c4; stroke:none;" d="M131 220L132.5 221L133.056 221.25L134.889 222.472L136.361 224.083L137.278 226L137.583 227L137.917 229L138 230L138.222 232L138.611 234L138.778 235L138.917 236L139 238L139 239L139 241L139 247L139 248L139.028 250L139.083 251L139.389 253L139.806 255L140.194 257L140.417 258L141.028 260L141.417 261L142.417 263L143.028 264L144.417 266L146.083 267.917L147.028 268.778L149 270.361L151 271.778L152 272.389L154 273.361L156 274.194L157 274.611L159 275.306L160 275.611L161 275.861L162 276.139L164 276.611L166 277L168 277.389L169 277.611L171 277.917L172 277.972L173 278L175 278L181 278L193 278L196 278L197 278L199 277.972L200 277.917L202 277.611L204 277.222L205 277.083L207 276.917L208 276.778L209 276.611L211 276.222L212 276.083L214 275.972L215 275.917L217 275.583L219 275L221 274.333L223 273.611L224 273.167L225 272.722L227 271.611L229 270.306L230 269.583L231 268.778L232.972 266.972L234.694 265L235.889 263L236.306 262L237 260L237.583 258L237.917 256L237.972 255L238 253L238 252L238 250L238 237L238 232L238 230L238.028 229L238.306 227L239.111 225L239.722 224.028L240.417 223.083L242.056 221.389L242.917 220.611L244.278 218.917L244.861 217L244.861 216L244.278 214.028L243.667 213.111L242.889 212.306L241.972 211.611L240 210.5L239 210.028L237 209.278L235 208.806L234 208.611L233 208.389L231 208.083L229 207.917L227 207.611L226 207.389L224 207.083L223 207.028L222 207L220 207L214 207L211 207L210 207L209 207L207 207.083L205 207.389L204 207.639L202 208.167L201 208.444L199 209.278L198.028 209.861L196.25 211.25L195.5 212.083L194.944 213.028L194.25 215L194.083 216L194 217.944L194 220L195.5 220.75L196.056 221.222L197.028 221.889L197.917 222.639L199.528 224.222L200.722 226.028L201.556 228L201.833 229L202.361 231L202.611 232L202.917 234L202.972 235L203 237L203 238L203 241L203 243L203 244L203 245L202.917 247L202.778 248L202.611 249L202.194 251L201.778 253L201.5 254L200.5 256L198.917 257.917L197 259.5L195 260.528L194 260.833L192 261.361L191 261.611L189 261.917L187 261.917L186 261.75L185 261.528L184 261.139L182 260.139L181 259.528L179.083 257.917L177.5 256L176.917 255L176.417 254L175.694 252L175.417 251L175.083 249L175.028 248L174.972 246L174.917 245L174.778 244L174.389 242L174.222 241L174.083 240L174 238L174 237L174 236L174.083 234L174.389 232L174.611 231L174.944 229L175.333 227L175.722 226L176.333 225L178.028 223.083L179.917 221.389L180.75 220.611L182.056 218.917L182.639 217L182.333 215.028L181.889 214.083L180.583 212.472L179.778 211.861L178.917 211.278L177 210.389L176 210L175 209.611L174 209.194L172 208.472L170 208.083L169 208.028L167 207.972L166 207.917L164 207.611L163 207.389L161 207.083L160 207.028L158 207L155 207L153 207L152 207.028L151 207.083L149 207.389L148 207.611L146 207.917L144 208.028L143 208.083L141 208.389L140 208.639L138 209.167L137 209.472L135 210.5L133.111 212.083L131.722 214L131.333 215L131.028 216.944L131 217.944L131 220z"/>
<path style="fill:#ea6080; stroke:none;" d="M203.667 207.333L203.667 207.667L204.333 207.667L204.333 207.333L203.667 207.333M226 207L226.722 207.722L227.25 207.75L229 208L228.278 207.278L227.75 207.25L226 207M140 208L141 209L140 208M178 208L179 209L178 208M195 208L196 209L195 208M233.667 208.333L233.667 208.667L234.333 208.667L234.333 208.333L233.667 208.333M132 209L133 210L132 209M136 209L137 210L136 209M174 209L175 210L174 209M180 209L181 210L180 209M194 209L195 210L194 209M198 209L199 210L198 209M177 210L178 211L177 210M193 210L194 211L193 210M239.667 210.333L239.667 210.667L240.333 210.667L240 210.333L239.667 210.333M130 211L131 212L130 211M133 211L134 212L133 211M179 211L180 212L179 211M132 212L133 213L132 212M131 213L132 214L131 213M181 213L182 214L181 213M191 213L191 218L191.722 217.222L191.75 216.694L191.917 215.083L191.75 214.306L191.722 213.778L191 213M194 213L195 214L194 213M247 213L247 219L247.722 218.222L247.75 217.694L247.944 216.889L247.944 215.111L247.75 214.306L247.722 213.778L247 213M130 215L130 219L130.722 218.222L130.722 217.722L130.889 217L130.722 215.778L130 215M193 215L193 218L193.694 217.25L193.694 216.806L193.694 215.75L193 215M185 216L185 219L185.694 218.25L185.694 217.806L185.694 216.75L185 216M182 218L183 219L182 218M128 219L129 220L128 219M192 220L193 221L192 220M195 220L196 221L195 220M246 220L247 221L246 220M179 221L180 222L179 221M135 222L136 223L135 222M240 222L241 223L240 222M244 222L245 223L244 222M136 223L137 224L136 223M199 223L200 224L199 223M243 223L244 224L243 223M179 224L180 225L179 224M175 225L175 228L175.694 227.25L175.694 226.806L175.694 225.75L175 225M178 225L179 226L178 225M238.333 225.667L238.333 226.333L238.667 226.333L238.667 226L238.333 225.667M241 225L242 226L241 225M177 227L177 230L177.694 229.25L177.694 228.806L177.694 227.75L177 227M201 227L202 228L201 227M199.333 229.667L199.333 230.333L199.667 230.333L199.667 229.667L199.333 229.667M240.333 230.667L240.333 231.333L240.667 231.333L240.667 231L240.333 230.667M174 231L174 243L174.722 242.222L174.75 241.694L174.944 240.889L174.972 239.972L175 239L175 237L175 235L174.972 234.028L174.944 233.111L174.75 232.306L174.722 231.778L174 231M202 231L202 234L202.694 233.25L202.694 232.806L202.694 231.75L202 231M136.333 232.667L136.333 233.333L136.667 233.333L136.667 233L136.333 232.667M238 245L238 253L238.722 252.222L238.75 251.694L238.944 250.889L239 249L238.972 248.028L238.944 247.111L238.75 246.306L238.722 245.778L238 245M136 246L136 249L136.694 248.25L136.694 247.194L136.694 246.75L136 246M199 251L199 254L199.694 253.25L199.694 252.806L199.694 251.75L199 251M178.333 252.667L178.333 253.333L178.667 253.333L178.667 252.667L178.333 252.667M139 253L140 254L139 253M201 254L202 255L201 254M240.333 254.667L240.333 255.333L240.667 255.333L240.667 255L240.333 254.667M137 255L138 256L137 255M177 256L178 257L177 256M197 256L198 257L197 256M200 256L201 257L200 256M199 257L200 258L199 257M182 258L183 259L182 258M194 258L195 259L194 258M138 259L139 260L138 259M180 259L181 260L180 259M190.667 259.333L190.667 259.667L191.333 259.667L191.333 259.333L190.667 259.333M197 259L198 260L197 259M195 260L196 261L195 260M236 261L237 262L236 261M239 261L240 262L239 261M143 264L144 265L143 264M238 264L239 265L238 264M141 265L142 266L141 265M234 265L235 266L234 265M233 266L234 267L233 266M237 266L238 267L237 266M232 267L233 268L232 267M236 267L237 268L236 267M231 268L232 269L231 268M235 268L236 269L235 268M144 269L145 270L144 269M234 269L235 270L234 269M149 270L150 271L149 270M228 270L229 271L228 270M233 270L234 271L233 270M149 273L150 274L149 273M154 273L155 274L154 273M223 273L224 274L223 273M151 274L152 275L151 274M220 274L221 275L220 274M227 274L228 275L227 274M153 275L154 276L153 275M225 275L226 276L225 275M155 276L156 277L155 276M163 276L164 277L163 276M209 276L209.722 276.722L210.25 276.75L212 277L211.278 276.278L210.75 276.25L209 276M222 276L223 277L222 276M157 277L158 278L157 277M202 277L202.722 277.722L203.25 277.75L205 278L204.278 277.278L203.75 277.25L202 277M219 277L220 278L219 277M161 278L162 279L161 278M176 278L176.778 278.722L177.306 278.75L178.111 278.944L179.028 278.972L181 279L183 279L188 279L187.222 278.278L186.694 278.25L185.889 278.056L184.972 278.028L183 278L181 278L176 278M213 278L213.722 278.722L214.25 278.75L216 279L215.278 278.278L214.75 278.25L213 278M164.667 279.333L164.667 279.667L165.333 279.667L165 279.333L164.667 279.333M206 279L206.722 279.722L207.25 279.75L209 280L208.278 279.278L207.75 279.25L206 279M170.667 280.333L171 280.667L171.333 280.667L171.333 280.333L170.667 280.333M192 280L192.778 280.722L193.306 280.75L194.056 280.944L194.972 280.972L197 281L196.222 280.278L195.694 280.25L194.944 280.056L194.028 280.028L192 280M147.667 285.333L147.667 285.667L148.333 285.667L148 285.333L147.667 285.333z"/>
<path style="fill:#312e28; stroke:none;" d="M227 321L227.778 319.778L228.306 319.417L230 318.167L230.917 317.528L232.583 315.917L233.889 314L234.389 313L235.111 311L235.361 310L235.611 309L235.889 307L235.889 306L235.611 304L235.361 303L234.833 301L234.556 300L233.722 298L232.528 296L230.917 294.083L229 292.472L227 291.25L226 290.778L225 290.25L223 289.389L221 288.667L220 288.333L219 288L217 287.417L216 287.194L214 286.806L213 286.611L212 286.389L210 286.083L209 286.028L207 286L206 286L203 286L202 286L200 285.972L199 285.917L197 285.611L196 285.389L194 285.083L193 285.028L191 285L189 285L182 285L160 285L155 285L153 285L152 285.028L151 285.083L149 285.389L148 285.611L146 285.917L145 285.972L143 286.083L142 286.222L141 286.417L139 287L138 287.306L136 287.806L134 288.306L132.083 289.333L130.5 291.028L129.5 293L129.167 295L129.5 297L129.944 298L130.5 299L132.083 301L133.889 303L135.306 305L135.75 306L136.361 308L136.611 309L136.917 311L137 313L137 314L137 316L137 323L137 326L137 327L137 329L136.972 330L136.917 331L136.611 333L136.389 334L136.194 335L135.722 337L134.889 339L133.583 341L132.806 342L131.222 344L130.472 345L129.278 347L128.5 349L128.333 350L128.5 352L128.861 353L129.861 354.917L131.25 356.528L133.028 357.722L135 358.528L136 358.778L138 359.194L140 359.611L142 359.917L143 359.972L145 360L147 360.083L149 360.389L150 360.611L152 360.917L153 360.972L155 361L157 361L161 361L172 361L207 361L215 361L217 361L219 360.972L220 360.917L222 360.611L223 360.389L225 360.083L227 359.972L228 359.917L230 359.611L232 359.139L233 358.833L235 358.139L236 357.722L237 357.139L238 356.528L239.972 354.917L240.917 353.972L242.528 352L243.75 350L244.222 349L244.75 348L245.528 346L245.778 345L246.194 343L246.389 342L246.611 341L246.778 340L246.889 338L246.528 336L245.806 334L245.389 333L244.583 331L244.083 330L243.528 329L242.139 327.083L240.611 325.417L239.778 324.694L238.917 324.028L237.972 323.417L236 322.417L234 321.694L233 321.417L231 321.083L230.056 321.028L229.056 321L227 321z"/>
<path style="fill:#ea6080; stroke:none;" d="M196.667 285.333L196.667 285.667L197.333 285.667L197.333 285.333L196.667 285.333M139.667 286.333L139.667 286.667L140.333 286.667L140.333 286.333L139.667 286.333M135 287L135.722 287.722L136.25 287.75L138 288L137.278 287.278L136.75 287.25L135 287M154 287L154.778 287.722L155.306 287.75L156.111 287.944L156.972 287.972L157.944 288L160 288L159.222 287.278L158.694 287.25L157.889 287.056L157.028 287.028L156.056 287L154 287z"/>
<path style="fill:#dcd6c4; stroke:none;" d="M132 298L133.5 298.778L134.028 299.306L134.972 300.111L136.583 302L137.889 304L138.361 305L138.889 307L139 309L139 310L139 312L139 324L139 328L139 330L139 332L138.972 333L138.917 334L138.583 336L138.306 337L137.583 339L137.111 340L136.583 341L135.972 342L134.611 344L133.861 345L132.472 347L131.5 349L131.194 351L131.722 352.917L132.333 353.75L134.028 355.083L136 355.972L138 356.667L139 357L141 357.583L143 357.917L144 357.972L146 358L147 358L149 358L160 358L208 358L214 358L216 358L217 357.972L218 357.917L220 357.611L221 357.389L223 357.083L224 357.028L226 356.972L227 356.917L229 356.611L231 356.139L232 355.833L234 355.139L235 354.722L236 354.139L237 353.528L238.917 351.917L240.5 350L241.083 349L241.972 347L242.583 345L242.778 344L242.917 343L243 341L243 340L243 338L242.972 336L242.917 335L242.528 333L241.722 331L240.528 329.111L239.75 328.306L237.972 327.028L237 326.5L235 325.611L234 325.306L232 324.944L230 324.583L229 324.306L227.056 323.694L225.5 323.25L224 323L224.111 321.5L224.722 319.944L226.111 318.083L227.917 316.389L228.778 315.611L230.278 313.917L231.389 312L232.111 310L232.361 309L232.778 307L232.889 305L232.583 303L232.306 302L231.972 301L231.083 299.028L230.5 298.083L228.917 296.417L227.972 295.694L226 294.333L225 293.667L223 292.417L221 291.417L219 290.694L218 290.417L216 290.056L215 289.944L213 289.611L212 289.389L210 289.056L209 288.944L207 288.611L206 288.389L204 288.083L203 288.028L202 288L200 288L194 288L175 288L172 288L171 288L169 287.972L168 287.917L166 287.611L165 287.389L163 287.111L162 287.111L160 287.389L159 287.611L157 287.917L156 287.972L154 288L153 288L151 288L149 288.028L148 288.083L146 288.389L144 288.778L143 288.917L141 289.028L140 289.083L139 289.25L138 289.472L137 289.861L136 290.278L134.111 291.472L133.333 292.25L132.333 294.028L132.111 294.944L132 296.5L132 298z"/>
<path style="fill:#ea6080; stroke:none;" d="M165 287L165.778 287.722L166.306 287.75L167.111 287.944L168.028 287.972L170 288L172 288L176 288L175.222 287.278L174.694 287.25L173.889 287.056L172.972 287.028L171 287L169 287L165 287M217 287L218 288L217 287M144.667 288.333L144.667 288.667L145.333 288.667L145 288.333L144.667 288.333M206 288L206.722 288.722L207.25 288.75L209 289L208.278 288.278L207.75 288.25L206 288M220 288L221 289L220 288M131 289L132 290L131 289M212.667 289.333L212.667 289.667L213.333 289.667L213.333 289.333L212.667 289.333M223 289L224 290L223 289M135 290L136 291L135 290M218 290L219 291L218 290M225 290L226 291L225 290M129 292L130 293L129 292M224 293L225 294L224 293M226 294L227 295L226 294M227 295L228 296L227 295M129 297L130 298L129 297M233 297L234 298L233 297M133 298L134 299L133 298M263 298L263 328L263.722 327.222L263.75 326.694L263.944 325.889L263.972 324.972L264 323L264 322L264 320L264 306L264 304L264 303L263.972 301.028L263.944 300.111L263.75 299.306L263.722 298.778L263 298M134 299L135 300L134 299M234 299L235 300L234 299M232.333 301.667L232.333 302.333L232.667 302.333L232.667 302L232.333 301.667M235.333 302.667L235.333 303L235.667 303.333L235.667 303L235.333 302.667M135 304L136 305L135 304M138.333 304.667L138.333 305.333L138.667 305.333L138.667 305L138.333 304.667M177 304L178 305L177 304z"/>
<path style="fill:#312e28; stroke:none;" d="M176 305L175.917 306.5L175.778 307.056L175.389 309L175.167 311L175.5 312.917L175.944 313.75L176.5 314.5L178.083 315.5L180 315.917L182 316L183 316L184 316L186 316L189 316L190 316L192 316L194 315.917L195.944 315.556L197.5 314.972L199 314L199 311.944L198.972 310L198.889 309L198.278 307.111L196.889 305.639L195.972 305.111L194 304.417L193 304.222L192 304.083L191 304.028L189 304L188 304L186 304L184 304L183 304L182 304L180 304.083L179.056 304.222L178.056 304.417L176 305z"/>
<path style="fill:#ea6080; stroke:none;" d="M194 304L195 305L194 304M175 306L175 309L175.694 308.25L175.694 307.806L175.694 306.75L175 306z"/>
<path style="fill:#dcd6c4; stroke:none;" d="M197 313L197 308L195.5 307.5L194.944 307.194L193 306.472L192 306.25L191 306.083L189 306L187 306L186 306L184 306L183 306L181 306.111L180.028 306.333L179.111 306.722L178.333 307.333L177.361 309.028L177.222 310L177.361 310.972L177.722 311.889L178.333 312.667L179.111 313.278L180.028 313.667L182 313.972L184 314L187 314L189 314L190 314L191 314L193 313.917L193.944 313.778L194.944 313.583L197 313z"/>
<path style="fill:#ea6080; stroke:none;" d="M193 306L194 307L193 306M195 307L196 308L195 307M136 308L136 311L136.694 310.25L136.694 309.806L136.694 308.75L136 308M199 308L199 312L199.722 311.222L199.722 310.722L199.889 310L199.722 308.778L199 308M235.333 309.667L235.333 310.333L235.667 310.333L235.667 310L235.333 309.667M175 313L176 314L175 313M178 313L179 314L178 313M195 313L196 314L195 313M230 313L231 314L230 313M182 314L182.778 314.722L183.306 314.75L184.111 314.944L185.028 314.972L187 315L188.944 315L192 315L191.222 314.278L190.694 314.25L189.889 314.056L188.972 314.028L187 314L185.056 314L182 314M233 314L234 315L233 314M177 315L178 316L177 315M196 315L197 316L196 315M180 316L180.778 316.722L181.306 316.75L182.111 316.944L183.028 316.972L185 317L187 317L192 317L191.222 316.278L190.694 316.25L189.889 316.056L188.972 316.028L187 316L185 316L180 316M227 316L228 317L227 316M229 318L230 319L229 318M227 319L228 320L227 319M224 322L225 323L224 322M226 323L227 324L226 323M229 324L229.722 324.722L230.25 324.75L232 325L231.278 324.278L230.75 324.25L229 324M239 324L240 325L239 324M236 326L237 327L236 326M241 326L242 327L241 326M242 327L243 328L242 327M261 328L261 346L261.722 345.222L261.75 344.694L261.944 343.889L261.972 342.972L262 341L262 340L262 338L262 335L262 334L262 332L261.972 331.028L261.944 330.111L261.75 329.306L261.722 328.778L261 328M182 329L182.722 329.722L183.25 329.75L185 330L184.278 329.278L183.75 329.25L182 329z"/>
<path style="fill:#312e28; stroke:none;" d="M185 329.389L184 329.611L182 329.917L180 330.111L179.028 330.333L178.111 330.722L177.333 331.333L176.722 332.111L176.333 333.028L176.028 335L176 336L176.111 338L176.333 338.972L176.722 339.917L178.111 341.5L179.028 342.056L180 342.5L182 342.917L184 343L185 343L186 343L188 343L190 343L192 342.917L194 342.611L195 342.361L197 341.833L197.972 341.528L199.75 340.5L201.028 338.917L201.417 337.972L201.5 336L200.889 334.028L200.361 333.083L198.889 331.5L197 330.5L195 330.056L194 329.944L192 329.611L191 329.389L189 329.083L188 329.056L187 329.083L185 329.389z"/>
<path style="fill:#ea6080; stroke:none;" d="M191.667 329.333L192 329.667L192.333 329.667L192 329.333L191.667 329.333M244 330L245 331L244 330M176 331L177 332L176 331M187 331L187.778 331.722L188.306 331.75L189.056 331.944L189.972 331.972L192 332L191.222 331.278L190.694 331.25L189.944 331.056L189.028 331.028L187 331M199 331L200 332L199 331M136.333 332.667L136.333 333L136.667 333.333L136.667 333L136.333 332.667z"/>
<path style="fill:#dcd6c4; stroke:none;" d="M178 339L180.056 339.583L181.056 339.778L182 339.917L184 340L185 340L186 340L189 340L198 340L199 339L198.972 337.5L198.667 335.972L198.278 335.083L196.889 333.5L195 332.5L193 332.083L191 332L190 332L187 332L185 332L183 332.028L182 332.111L181.028 332.333L179.333 333.333L178.722 334.111L178.111 335.944L178 337.5L178 339z"/>
<path style="fill:#ea6080; stroke:none;" d="M195 332L196 333L195 332M175 333L175 340L175.722 339.222L175.75 338.694L175.944 337.889L175.972 336.972L175.944 335.111L175.75 334.306L175.722 333.778L175 333M178 333L179 334L178 333M197 333L198 334L197 333M245 333L246 334L245 333M138 334L138 337L138.694 336.25L138.694 335.194L138.694 334.75L138 334M198 334L199 335L198 334M201.333 334.667L201.333 335L201.667 335.333L201.667 335L201.333 334.667M243 335L243 343L243.722 342.222L243.75 341.694L243.944 340.889L243.972 339.972L244 339L243.944 337.111L243.75 336.306L243.722 335.778L243 335M201 338L202 339L201 338M179 339L180 340L179 339M176 340L177 341L176 340M187 340L187.778 340.722L188.306 340.75L189.111 340.944L190.028 340.972L190.944 341L191.944 341L194 341L193.222 340.278L192.694 340.25L191.889 340.056L190.972 340.028L190.056 340L189.056 340L187 340M200 340L201 341L200 340M133 341L134 342L133 341M177 341L178 342L177 341M198 341L199 342L198 341M194.667 342.333L195 342.667L195.333 342.667L195 342.333L194.667 342.333M134 344L135 345L134 344M133 345L134 346L133 345M242 345L243 346L242 345M132 346L133 347L132 346M131 348L132 349L131 348M243 350L244 351L243 350M128 352L129 353L128 352M241 353L242 354L241 353M129 354L130 355L129 354M240 354L241 355L240 354M134 355L135 356L134 355M239 355L240 356L239 355M136.667 356.333L137 356.667L137.333 356.667L137 356.333L136.667 356.333M229 356L230 357L229 356M113 357L113 390L113.722 389.222L113.75 388.694L113.944 387.889L113.972 386.972L114 385L114 384L114 382L114 365L114 363L114 362L113.972 360.028L113.944 359.111L113.75 358.306L113.722 357.778L113 357M220 357L220.778 357.722L221.25 357.75L222.056 357.944L224 358L223.222 357.278L222.75 357.25L221.944 357.056L220 357M236 357L237 358L236 357M170 358L170.778 358.722L171.306 358.75L172.111 358.944L173.028 358.972L174 359L176 359L178 359L183 359L213 359L212.222 358.278L211.694 358.25L210.889 358.056L209.972 358.028L209 358L207 358L205 358L200 358L170 358M230 359L231 360L230 359M146 360L146.778 360.722L147.25 360.75L148.056 360.944L150 361L149.222 360.278L148.75 360.25L147.944 360.056L146 360M222.667 360.333L223 360.667L223.333 360.667L223 360.333L222.667 360.333M170.667 365.333L171 365.667L171.333 365.667L171 365.333L170.667 365.333z"/>
<path style="fill:#312e28; stroke:none;" d="M172 365.389L171 365.611L169 365.917L167 366L165 366.028L164 366.083L162 366.389L161 366.639L159 367.139L158 367.389L156 368.028L155.028 368.417L153.222 369.5L152.417 370.25L151.722 371.083L150.639 373L150.194 375L150.472 377L151.278 379L152.472 381L154.083 383L155 384L155.889 385L157.278 387L157.917 389L158.056 390L158.389 392L158.611 393L158.917 395L159 397L159 398L159 399L159 402L159 405L159 406L158.917 408L158.5 410L157.5 412L155.917 413.917L154.972 414.778L154.028 415.611L153.083 416.389L151.472 418.083L150.861 419.028L150.278 420L149.5 422L149.333 423L149.306 424L149.444 425L150.028 427L150.917 428.917L151.5 429.75L152.25 430.5L154.028 431.583L156 432.333L157 432.667L159 433.306L160 433.583L161 433.806L163 434.194L164 434.389L165 434.611L167 435L169 435.389L170 435.611L172 435.917L173 435.972L175 436L176 436L178 436L180 436.028L181 436.083L183 436.389L184 436.611L186 436.917L187 436.972L189 437L190 437L192 437L195 437L196 437L198 436.972L199 436.917L201 436.611L202 436.389L204 436.083L205 436.028L207 435.972L208 435.917L210 435.611L212 435.222L213 435.056L215 434.75L216 434.528L218 433.806L219 433.389L220 433.028L222 432.306L223 431.917L223.972 431.444L225.75 430.278L227.056 428.778L227.75 426.972L227.944 425L227.917 424L227.5 422L226.5 420.083L225.75 419.222L224.917 418.389L223.083 416.778L221.5 414.972L220.5 413L220.222 412L219.806 410L219.389 408L219.222 407L219.083 406L219 404L219 403L219 402L219 400L219 398L219 397L219.083 395L219.389 393L219.639 392L220.167 390L220.472 389L221.5 387L223.083 385L224.917 383L225.75 382L227.056 380L227.5 379L227.889 377L227.889 376L227.5 374L226.5 372.083L224.917 370.472L223 369.278L222 368.833L220 368.028L218 367.417L216 367.056L215 366.944L213 366.611L212 366.389L210 366.083L208 366L207 366L205 365.972L204 365.917L202 365.611L201 365.389L199 365.083L198 365.028L196 365L194 365L186 365L179 365L177 365L176 365L174 365.083L172 365.389z"/>
<path style="fill:#ea6080; stroke:none;" d="M201.667 365.333L202 365.667L202.333 365.667L202 365.333L201.667 365.333M177 367L177.778 367.722L178.306 367.75L179.111 367.944L180.028 367.972L182 368L183 368L185 368L198 368L197.222 367.278L196.694 367.25L195.889 367.056L194.972 367.028L193 367L192 367L190 367L177 367M218 367L219 368L218 367M115 368L115 387L115.722 386.222L115.75 385.694L115.944 384.889L115.972 383.972L116 383L116 381L116 380L116 377L116 375L116 374L116 372L115.972 371.028L115.944 370.111L115.75 369.306L115.722 368.778L115 368M166.667 368.333L167 368.667L167.333 368.667L167 368.333L166.667 368.333z"/>
<path style="fill:#dcd6c4; stroke:none;" d="M152 422L152.25 423.5L152.722 425.056L153.111 425.972L154.306 427.75L155.111 428.5L157 429.583L159 430.306L160 430.583L161 430.806L163 431.194L165 431.694L167 432.306L168 432.583L170 432.917L172 433L173 433L175 433.028L176 433.083L178 433.389L179 433.611L181 433.917L182 433.972L184 434L185 434L191 434L194 434L195 434L197 433.972L198 433.917L200 433.611L201 433.389L203 433.083L204 433.028L206 433L208 433L209 432.972L210 432.917L212 432.611L213 432.361L215 431.833L216 431.556L217 431.167L218 430.806L220 429.944L221.944 428.972L222.944 428.361L225 427L224.972 425.5L224.667 423.944L224.278 423L223.667 422L222.889 421L221.083 419L219.5 417L218.472 415L218.167 414L217.639 412L217.361 411L217.139 410L216.639 408L216.389 407L216.083 405L216.028 404L216 402L216 401L216 399L216 397L216 396L216.083 394L216.222 393L216.417 392L216.694 391L217.417 389L218.417 387L219.028 386L220.417 384L221.194 383L222 382L223.5 380L224.056 379L224.667 377L224.472 375.028L224.056 374.083L222.75 372.5L221.917 371.917L220.972 371.417L219 370.694L217 370.139L216 369.861L214 369.389L212 369.083L211 369.028L209 368.917L207 368.611L206 368.389L204 368.083L203 368.028L201 368L200 368L197 368L184 368L176 368L174 368L173 368L172 368L170 368.083L168 368.389L167 368.611L165 368.944L164 369.056L162 369.389L161 369.639L159 370.167L158 370.444L156.083 371.278L155.25 371.861L154.5 372.472L153.5 374.083L153.194 376L153.361 377L154.333 379L156.028 381L157.917 383L159.5 385L160.056 386L160.5 387L160.917 389L160.972 390L161 392L161 393L161 395L161 405L161 407L161 408L160.917 410L160.5 412L160.056 413L159.5 414L157.917 415.917L157 416.778L155.222 418.389L153.667 420.028L153.25 420.528L152 422z"/>
<path style="fill:#ea6080; stroke:none;" d="M206 368L206.722 368.722L207.25 368.75L209 369L208.278 368.278L207.75 368.25L206 368M221 368L222 369L221 368M161 369L162 370L161 369M214.667 369.333L215 369.667L215.333 369.667L215 369.333L214.667 369.333M223 369L224 370L223 369M157 370L158 371L157 370M218.667 370.333L219 370.667L219.333 370.667L219 370.333L218.667 370.333M151 371L152 372L151 371M155 371L156 372L155 371M221 371L222 372L221 371M153 373L154 374L153 373M224 374L225 375L224 374M150 377L151 378L150 377M224 378L225 379L224 378M151 379L152 380L151 379M227 379L228 380L227 379M226 381L227 382L226 381M221 382L222 383L221 382M225 382L226 383L225 382M220 383L221 384L220 383M224 383L225 384L224 383M159 384L160 385L159 384M223 384L224 385L223 384M222 385L223 386L222 385M157 386L158 387L157 386M218 386L219 387L218 386M221 386L222 387L221 386M217 388L218 389L217 388M220 388L221 389L220 388M216 391L216 394L216.694 393.25L216.694 392.194L216.694 391.75L216 391M158 392L158 411L158.722 410.222L158.75 409.694L158.944 408.889L158.972 407.972L159 407L159 405L159 404L159 401L159 399L159 398L159 396L158.972 395.028L158.944 394.111L158.75 393.306L158.722 392.778L158 392M216 404L216 408L216.722 407.222L216.722 406.722L216.889 406L216.722 404.778L216 404M113 408L113 412L113.722 411.222L113.722 410.722L113.889 410L113.722 408.778L113 408M160.333 411.667L160.333 412L160.667 412.333L160.667 412L160.333 411.667M157 412L158 413L157 412M154 415L155 416L154 415M219 417L220 418L219 417M223 417L224 418L223 417M150 419L151 420L150 419M153 420L154 421L153 420M223 421L224 422L223 421M227 421L228 422L227 421M152.333 424.667L152.333 425L152.667 425.333L152.667 424.667L152.333 424.667M150 428L151 429L150 428M222 428L223 429L222 428M227 428L228 429L227 428M156 429L157 430L156 429M159 430L160 431L159 430M225 430L226 431L225 430M162 431L162.722 431.722L163.25 431.75L165 432L164.278 431.278L163.75 431.25L162 431M156 432L157 433L156 432M166.667 432.333L167 432.667L167.333 432.667L167 432.333L166.667 432.333M221 432L222 433L221 432M159 433L160 434L159 433M175 433L175.778 433.722L176.25 433.75L177.056 433.944L179 434L178.222 433.278L177.75 433.25L176.944 433.056L175 433M200 433L200.778 433.722L201.306 433.75L202.056 433.944L202.972 433.972L205 434L204.222 433.278L203.694 433.25L202.944 433.056L202.028 433.028L200 433M218 433L219 434L218 433M162 434L162.722 434.722L163.25 434.75L165 435L164.278 434.278L163.75 434.25L162 434M179 436L179.778 436.722L180.306 436.75L181.056 436.944L181.972 436.972L184 437L183.222 436.278L182.694 436.25L181.944 436.056L181.028 436.028L179 436M153 438L153.778 438.722L154.306 438.75L155.111 438.944L155.972 438.972L156.944 439L159 439L158.222 438.278L157.694 438.25L156.889 438.056L156.028 438.028L155.056 438L153 438M262 438L262 454L262.722 453.222L262.75 452.694L262.944 451.889L262.972 450.972L263 449L263 448L263 446L263 444L263 443L262.972 441.028L262.944 440.111L262.75 439.306L262.722 438.778L262 438M145.667 439.333L146 439.667L146.333 439.667L146 439.333L145.667 439.333z"/>
<path style="fill:#312e28; stroke:none;" d="M212 474L212.778 472.5L213.306 471.944L214.111 470.944L215.028 470L216 469L217 468L219 466.083L221 464.389L222 463.611L224 461.944L225 461.056L227 459.5L228 458.917L229 458.417L231 457.667L232 457.306L234 456.389L235.917 455.111L236.75 454.361L237.5 453.611L238.5 451.917L238.722 450.972L238.833 450L238.5 448L237.5 446.028L236.75 445.083L234.972 443.472L234 442.861L232 441.778L231 441.25L229 440.472L228 440.222L226 439.806L224 439.389L223 439.222L222 439.083L220 439L219 439L218 439L216 439L213 439L211 439L209 439.028L208 439.083L206 439.389L205 439.639L204 439.861L203 440.139L201 440.639L200 440.861L199 441.167L198 441.444L196 442.278L195.028 442.861L194.083 443.472L192.5 445.083L191.5 447L191.083 449L191.111 451L191.722 453L193.083 455L193.917 456L194.639 457L195.417 459L195.028 461L193.75 463L191.972 464.917L190 466.528L189 467.139L187 468.139L185 468.722L183 468.639L181.083 467.667L179.5 465.972L178.583 464L178.583 462L178.972 461L179.472 460L180.833 458L181.556 457L182.722 455L183.139 454L183.528 453L183.889 451L183.861 450L183.361 448L182.278 446.083L180.778 444.417L179.917 443.694L178.972 443.028L178 442.417L176 441.472L175 441.167L174 440.861L173 440.639L171 440.139L170 439.861L169 439.639L168 439.389L166 439.083L165 439.028L163 439L161 439L158 439L153 439L151 439L150 439.028L149 439.083L147 439.389L146 439.611L144 439.944L143 440.056L141 440.389L139 440.861L138 441.139L136 441.694L134 442.417L132.083 443.5L130.5 445.083L129.5 447L129.25 448L129.111 450L129.472 452L130.278 454L131.472 456L132.222 457L133.778 459L134.5 460L135.083 461L135.583 462L136.306 464L136.583 465L136.917 467L136.972 468L137 470L137 471L137 474L137 483L137 485L137 486L136.917 488L136.528 490L136.139 491L135.722 492L134.528 493.972L133.75 494.917L132.944 495.778L131.222 497.389L130.417 498.222L129.111 500.028L128.306 502L128.139 503L128.306 505L129.111 506.972L129.722 507.917L131.222 509.528L133.028 510.722L135 511.611L137 512.306L138 512.583L140 512.944L141 513.056L143 513.389L144 513.611L145 513.806L147 514.194L148 514.389L149 514.611L151 514.917L152 514.972L153 515L155 515L160 515L165 515L167 515L169 514.917L171 514.611L172 514.389L174 514L176 513.583L177 513.306L179 512.611L180 512.167L181.889 511.139L182.694 510.528L183.361 509.75L184.278 507.972L184.694 506L184.5 504L183.722 502.028L182.528 500.222L181.75 499.389L180.083 497.778L179.306 496.917L178.639 495.972L177.75 494L177.472 492L177.583 491L178.5 489.083L180.083 487.528L181.028 487.028L183 486.75L184 487.028L185.972 488.25L186.917 489.083L188.5 491L189.583 493L190.389 495L191.194 497L191.611 498L192.389 500L192.806 501L193.611 503L194.417 505L194.889 506L195.417 507L196.694 508.972L197.417 509.917L199.083 511.528L201 512.75L202 513.222L203 513.75L205 514.528L206 514.75L207 514.944L209 515.222L210 515.389L211 515.611L213 515.917L215 516L216 516L217 516L220 516L227 516L230 516L231 516L233 515.972L234 515.917L236 515.611L237 515.389L239 515.056L240 514.944L242 514.5L243.972 513.5L245.75 511.917L246.528 510.972L247.139 510L248.139 508L248.5 507L248.667 505L248.5 504L247.722 502L246.528 500.028L244.917 498.222L243.972 497.389L243.028 496.611L241.25 494.917L240.5 493.972L239.417 492L238.667 490L238.333 489L237.583 487L236.5 485L235.75 484L234.917 483L233 481.028L231 479.25L230 478.5L228 477.417L226 476.667L225 476.333L223 475.694L222 475.417L220 475.083L218 474.972L217 474.917L215.056 474.611L213.5 474.25L212 474z"/>
<path style="fill:#ea6080; stroke:none;" d="M204.667 439.333L205 439.667L205.333 439.667L205.333 439.333L204.667 439.333M224 439L224.722 439.722L225.25 439.75L227 440L226.278 439.278L225.75 439.25L224 439M139.667 440.333L140 440.667L140.333 440.667L140.333 440.333L139.667 440.333M172 440L173 441L172 440M201 440L202 441L201 440M260 440L260 451L260.722 450.222L260.75 449.694L260.944 448.889L260.972 447.972L261 447L261 445L260.972 443.028L260.944 442.111L260.75 441.306L260.722 440.778L260 440M136 441L137 442L136 441z"/>
<path style="fill:#dcd6c4; stroke:none;" d="M227 513L226.222 512.278L225.694 512.25L224.889 512.056L223.972 512.028L222 511.972L221 511.889L219.111 511.333L217.778 510.389L217 509L221 509L220.222 508.194L219.694 508.028L218.889 507.639L217.111 506.889L216.333 506.417L215.361 505.389L215 504L217.056 504L218.056 504L220 503.889L221 503.694L222.917 502.889L224.583 501.583L225.917 499.917L226.889 498L227.194 497L227.417 495L227.417 494L227.694 492.056L228.333 490.5L229 489L232 492L233 492L235 491L234.889 489.5L234.306 487.944L233.111 486L232.361 485L230.778 483.083L229.917 482.25L228.972 481.472L228 480.861L226 479.833L225 479.389L223 478.694L221 478.139L220 477.861L218 477.389L216 477.083L214 476.889L212.028 476.278L211.111 475.667L210.361 474.889L209.667 473L209.833 472L211.111 470L212.028 469L213 468L215 466L216 465L218 463L219 462L221 460.083L223 458.417L224 457.722L225 457.083L227 456.056L229 455.194L230 454.806L231.972 453.917L232.889 453.361L234.278 451.889L234.667 450.972L234.889 450.056L235 448.5L235 447L233.5 446L232.944 445.778L231.944 445.194L231 444.778L230 444.25L228 443.444L227 443.167L226 442.861L225 442.639L223 442.139L222 441.861L220 441.389L219 441.222L218 441.083L216 441.083L214 441.389L213 441.611L211 441.917L210 441.972L208 442.028L207 442.083L205 442.417L204 442.694L203 443L201 443.611L199 444.167L198.028 444.472L196.25 445.5L195.5 446.25L194.944 447.083L194.278 449L194.194 450L194.722 452L196.083 454L197.667 456L198.556 458L198.361 460L197.972 461L196.972 463L195.694 464.972L194.889 465.917L193 467.583L191 468.917L189 469.917L188 470.278L187 470.583L185 471L183 471.306L182 471.361L180.028 470.972L179.083 470.472L177.5 468.917L176.5 467L176.083 465L176.028 464L176.083 462L176.5 460L176.917 459L177.417 458L178.667 456L179.889 454L180.694 452L180.861 451L180.667 449.028L180.278 448.083L178.889 446.472L177 445.25L176 444.778L175 444.25L173 443.472L172 443.222L171 443L169 442.611L167 442.139L166 441.861L165 441.639L164 441.389L162 441.083L161 441.028L159 441L157 441L155 441L153 441.028L152 441.083L150 441.389L149 441.611L147 441.917L145 442.028L144 442.083L142 442.417L140 443L139 443.333L137 444.083L135.083 445.083L133.5 446.417L132.5 448.083L132.278 449.028L132.194 450L132.639 452L133.722 454L135.194 456L136.722 458L137.389 459L138.5 461L138.972 462L139.389 463L139.889 465L139.972 466L140 467L140 468L140 470L140 482L140 484L140 485L140 486L139.917 488L139.75 489L139.528 490L138.722 492L138.167 493L137.611 494L136.306 495.917L135.583 496.778L134 498.389L132.5 500.083L131.528 502L131.333 504L131.944 505.917L132.5 506.778L134.083 508.278L136 509.361L137 509.722L139 510.194L140 510.389L141 510.611L143 510.917L145 511.083L147 511.389L148 511.611L150 511.917L151 511.972L152 512L154 512L161 512L165 512L167 512L168 511.972L169 511.917L171 511.611L173 511.222L175 510.944L176 510.75L177 510.5L178.972 509.5L179.889 508.75L181.25 506.972L181.556 506L181.583 505L181.333 504.028L180.278 502.222L178.778 500.611L177.083 498.917L175.694 497L175.25 496L174.667 494L174.472 493L174.5 491L175.028 489L175.917 487.028L176.5 486.083L178.083 484.5L180 483.5L182 483.167L183 483.278L184 483.5L186 484.5L188 486.083L188.972 487.028L189.889 488L191.361 490L192.361 492L193.25 494L193.75 495L194.611 497L195.389 499L195.806 500L196.611 502L197.389 504L198.278 505.972L198.861 506.917L199.472 507.778L201.083 509.306L203 510.583L205 511.528L206 511.833L208 512.361L209 512.611L211 512.917L213 513L214 513L215 513L217 513L227 513z"/>
<path style="fill:#ea6080; stroke:none;" d="M197 441L198 442L197 441M209 441L209.778 441.722L210.306 441.75L211.056 441.944L211.972 441.972L214 442L213.222 441.278L212.694 441.25L211.944 441.056L211.028 441.028L209 441M231 441L232 442L231 441M168.667 442.333L168.667 442.667L169.333 442.667L169.333 442.333L168.667 442.333M224 442L224.722 442.722L225.25 442.75L227 443L226.278 442.278L225.75 442.25L224 442M233 442L234 443L233 442M138 443L139 444L138 443M179 443L180 444L179 443M199 443L199.722 443.722L200.25 443.75L202 444L201.278 443.278L200.75 443.25L199 443M175 444L176 445L175 444M230 444L231 445L230 444M236 444L237 445L236 444M134 445L135 446L134 445M182 446L183 447L182 446M191 446L192 447L191 446M132 447L133 448L132 447M194 447L195 448L194 447M131 448L131 452L131.722 451.222L131.722 450.722L131.889 450L131.722 448.778L131 448M190 449L190 452L190.694 451.25L190.694 450.806L190.694 449.75L190 449M129 452L130 453L129 452M132 452L133 453L132 452M194 452L195 453L194 452M133 453L134 454L133 453M183 453L184 454L183 453M179 454L180 455L179 454M236 454L237 455L236 454M182 455L183 456L182 455M198 456L198 461L198.722 460.222L198.75 459.694L198.917 458.083L198.75 457.306L198.722 456.778L198 456M225 456L226 457L225 456M177 457L178 458L177 457M137 458L138 459L137 458M222 458L223 459L222 458M176 459L177 460L176 459M179 459L180 460L179 459M221 459L222 460L221 459M226 459L227 460L226 459M220 460L221 461L220 460M219 461L220 462L219 461M139.333 462.667L139.333 463.333L139.667 463.333L139.667 463L139.333 462.667M194 462L195 463L194 462M218 462L219 463L218 462M217 463L218 464L217 463M220 464L221 465L220 464M219 465L220 466L219 465M190 466L191 467L190 466M194 466L195 467L194 466M218 466L219 467L218 466M188 467L189 468L188 467M193 467L194 468L193 467M217 467L218 468L217 467M186 468L187 469L186 468M216 468L217 469L216 468M177 469L178 470L177 469M190 469L191 470L190 469M178 470L179 471L178 470M180 471L180.722 471.722L181.25 471.75L183 472L182.278 471.278L181.75 471.25L180 471M209 471L209 475L209.722 474.222L209.722 473.722L209.889 473L209.722 471.778L209 471M212.333 472.667L212.333 473.333L212.667 473.333L212.667 473L212.333 472.667M214 474L214.778 474.722L215.25 474.75L216.056 474.944L218 475L217.222 474.278L216.75 474.25L215.944 474.056L214 474M210 475L211 476L210 475M222.667 475.333L222.667 475.667L223.333 475.667L223.333 475.333L222.667 475.333M225.667 476.333L226 476.667L226.333 476.667L226 476.333L225.667 476.333M228 477L229 478L228 477M225 479L226 480L225 479M231 479L232 480L231 479M179 483L180 484L179 483M177 484L178 485L177 484M176 485L177 486L176 485M175 487L176 488L175 487M246 487L245.222 488.389L244.75 488.722L243.472 489.639L242 490L242.028 491.5L242.25 493.028L242.5 493.917L243.5 495.528L244.25 496.167L245.917 497.472L247.389 498.972L247.944 499.694L248.556 500.278L248.833 500.639L250 501L250 488L248.556 487.583L247.444 487.25L246 487M191 489L192 490L191 489M229 489L227.861 490.5L227.306 492.056L227.167 492.972L227.167 494.778L227.194 495.611L226.833 497.222L226.417 498.083L225.278 499.917L223.778 501.583L222.917 502.278L221.972 502.889L220 503.694L218.056 503.972L217.056 504L215 504L215.111 505.389L215.722 506.417L216.333 506.889L217.972 507.583L219.5 507.917L221 508L219.556 508.722L219 508.75L217 509L217 511L218 512L220.056 512L221.056 512L223 512.028L224 512.083L226 512.389L227 512.611L229 512.917L230 512.972L232 512.917L234 512.611L235 512.389L237 512.083L239 511.917L240 511.75L241 511.5L242.889 510.5L244.278 508.917L244.889 507L244.972 506L245 504.056L245 502L243.583 500.944L242.333 499.944L240.778 498.583L239.056 496.917L237.5 495L236.5 493L236.25 492.056L236.028 490.5L236 489L234.917 489.694L234.583 490.028L233.778 490.639L232 492L230.75 490.25L230.389 489.722L229 489M238 489L239 490L238 489M136 490L137 491L136 490M174 490L174 494L174.722 493.222L174.722 492.722L174.889 492L174.722 490.778L174 490M177 490L177 494L177.722 493.222L177.722 492.722L177.889 492L177.722 490.778L177 490M188 490L189 491L188 490M189 492L190 493L189 492M239 492L240 493L239 492M134 494L135 495L134 494M193 494L194 495L193 494M132 496L133 497L132 496M178 496L179 497L178 496M194 496L195 497L194 496M135 497L136 498L135 497M175 497L176 498L175 497M179 497L180 498L179 497M191 497L192 498L191 497M176 498L177 499L176 498M180 498L181 499L180 498M259 498L259 506L259.722 505.222L259.75 504.694L259.944 503.889L259.972 502.972L260 502L259.944 500.111L259.75 499.306L259.722 498.778L259 498M129 499L130 500L129 499M177 499L178 500L177 499M195 499L196 500L195 499M178 500L179 501L178 500M131 501L132 502L131 501M183 501L184 502L183 501M196 501L197 502L196 501M180 502L181 503L180 502M193 502L194 503L193 502M197 504L198 505L197 504M131 505L132 506L131 505M194 505L195 506L194 505M129 507L130 508L129 507M181 507L182 508L181 507M195 507L196 508L195 507M248 507L247.472 508.5L246.5 510.056L244.917 511.917L244 512.778L242.333 514.389L241.722 515.167L241.111 516.528L241 518L237 518L236.278 519.194L235.75 519.583L234 521L234 519L233 518L231.75 518.333L231.333 518.611L229.833 519.389L229.417 519.667L228 520L228 521L230 521L228.5 521.806L227.944 521.972L226.944 522.333L225.056 522.778L224.5 522.917L223 523L223.778 523.722L224.306 523.722L225.111 523.861L226.944 523.583L229 523L228.222 524.139L227.694 524.333L226.944 524.722L225.5 524.972L224 525L224.306 526.139L224.667 526.333L226 527L224.5 527.722L223.944 527.75L223 527.944L222.056 527.972L220 528L219.639 526.611L219.333 526.278L218.389 525.361L217 525L216.667 526.417L216.056 527.611L215.861 528.333L215.611 528.75L216 530L214.75 529.333L214.333 529.028L212.833 528.306L211.472 528.028L210 528L210 529L212 530L210.889 530.361L210.528 531.278L210.389 531.611L211 533L207 533L205 533L203 533.056L202 533.139L200.056 533.194L198 533L198.333 534.722L198.722 535.333L199.333 535.667L200.111 535.889L201.028 535.972L203 536L204 536L206 536L211 536L213 536L215 536.028L216 536.083L218 536.389L219 536.583L221 536.611L222 536.361L224 535.611L226 535.111L228 535L229 535L231 535.083L232 535.222L234 535.528L235 535.556L236 535.528L237 535.361L239 535.083L241 534.917L242 534.778L243 534.611L245 534.306L247 534.417L247.944 534.611L248.944 534.778L249.5 534.917L251 535L250.833 533.5L251 533.167L252 533L252 530.944L251.972 529L251.889 528L251.694 527L251 525L250.611 524L250.111 522L250.028 521L250 520L250 518L250 515L250 513L249.972 511L249.722 509.111L249.333 508.306L249.139 507.778L248 507M134 508L135 509L134 508M180 508L181 509L180 508M196 508L197 509L196 508M179 509L180 510L179 509M201 509L202 510L201 509M132 510L133 511L132 510M134 511L135 512L134 511M146.667 511.333L147 511.667L147.333 511.667L147 511.333L146.667 511.333M171 511L171.722 511.722L172.25 511.75L174 512L173.278 511.278L172.75 511.25L171 511M181 511L182 512L181 511M137 512L138 513L137 512M152 512L152.778 512.722L153.306 512.75L154.111 512.944L155.028 512.972L156 513L157 513L159 513L168 513L167.222 512.278L166.694 512.25L165.889 512.056L164.972 512.028L164 512L163 512L161 512L152 512M141 513L141.722 513.722L142.25 513.75L144 514L143.278 513.278L142.75 513.25L141 513M202 513L203 514L202 513M147.667 514.333L148 514.667L148.333 514.667L148.333 514.333L147.667 514.333M113 518L114 519L113 518M115 519L116 520L115 519M262 520L262.25 522L262.278 522.556L263 524L264 524L265 522L266.5 522.722L267 522.75L268 522.944L270 523L270.25 524.5L270.722 525.944L271.111 526.694L271.583 527.333L272.25 527.917L274 529L272.5 529.833L271.944 530.056L270.944 530.556L269.056 531.389L267.5 531.889L266 532L266.278 533.5L266.833 535L267.194 535.944L267.5 536.5L268 538L270.056 537.917L272 537.611L274 537.222L276 536.944L277 536.75L278 536.528L280 535.75L280.944 535.25L281.944 534.833L282.5 534.5L284 534L283.833 532.5L284.5 531.5L284.833 531.167L285 530L283.5 529.556L282 528.972L281.5 528.806L280 528L282 527L283 527L282.472 525.583L282.111 525.167L281.611 524.389L280.694 523.25L280 522L278.5 521.917L276.944 521.583L275 521L273 520.333L272 520L270 519.417L269 519.222L268 519.083L266 519.083L264.056 519.417L262 520z"/>
<path style="fill:#312e28; stroke:none;" d="M137 521L138 522L137 521z"/>
<path style="fill:#ea6080; stroke:none;" d="M139 521L139.75 523L139.972 524L140.083 524.5L140 526L141.5 526.667L142.056 526.972L144 527.639L146 527.806L146.944 527.778L148.5 527.833L150 528L149.75 526.5L149.389 525L149.25 524.5L149 523L147.528 523.278L146.278 523.889L145.361 524.778L145 526L144 524.167L143.5 523.667L143.167 523.333L142 524L141.639 522.611L141.333 522.278L140.389 521.361L139 521z"/>
<path style="fill:#312e28; stroke:none;" d="M152 521L152.583 523.056L152.917 524.944L152.972 525.944L153 528L155 527.75L155.556 527.722L157 527L157 523L155.583 522.667L155.167 522.389L153.667 521.611L153.25 521.333L152 521M158.333 521.667L158.333 522L158.667 522.333L158.667 522L158.333 521.667z"/>
<path style="fill:#ea6080; stroke:none;" d="M168 521L167.222 522.167L165.972 522.861L164.389 523.194L162.833 523.139L162.417 523.056L161 523L160 524L160 527L161 528L162.472 527.944L162.972 527.861L164.611 527.75L165.333 527.778L166.167 527.611L166.583 527.667L168 527L168 526L166 527L166.694 525.75L167.056 525.333L167.611 524.556L168.444 523.028L168.5 522.278L168.639 521.778L168 521z"/>
<path style="fill:#312e28; stroke:none;" d="M183 521L183.111 522.472L183.694 523.833L184.806 525.333L185.25 525.75L186 527L184.556 526.583L183.444 526.25L182 526L182.778 527.139L184.111 527.611L185.889 527.306L187.222 526.389L188 525L186.528 524.472L185.25 523.556L184.778 523.222L184 522L186 523L187 523L186.639 521.861L185.722 521.278L184.472 521.028L183 521z"/>
<path style="fill:#ea6080; stroke:none;" d="M215 521L215 525L215.722 524.222L215.722 523.722L215.889 523L215.722 521.778L215 521z"/>
<path style="fill:#312e28; stroke:none;" d="M216 521L215.972 523.056L215.917 524.056L215.583 525.944L215 528L216.167 527.639L216.444 527.306L217.556 526.194L217.833 525.75L219 525L218.333 523.972L217.667 523.194L217 522L219 523L220 523L220 528L226 528L225.333 526.972L224.667 526.194L224 525L225.5 525L226.944 524.889L227.667 524.722L228.278 524.333L228.639 524.139L229 523L227.5 523.25L225.944 523.611L224.056 523.917L222 524L221.639 522.778L220.667 521.889L219.028 521.25L217.5 521.028L216 521z"/>
<path style="fill:#ea6080; stroke:none;" d="M111 522L112 523L111 522M137 522L137 526L137.722 525.222L137.889 524L137.722 523.278L137.722 522.778L137 522M182.333 522.667L182.333 523L182.667 523.333L182.667 522.667L182.333 522.667z"/>
<path style="fill:#dcd6c4; stroke:none;" d="M217 522L217.333 523.25L217.611 523.611L218.333 524.75L219 526L219.694 525.222L219.611 524L219.306 523.306L218.389 522.361L217 522z"/>
<path style="fill:#312e28; stroke:none;" d="M230 522L230 527L229 526L227 526L227.361 527.139L228.278 527.722L229.528 527.972L231 528L231 525.944L230.972 524.972L230.944 524.111L230.75 523.306L230.722 522.778L230 522z"/>
<path style="fill:#ea6080; stroke:none;" d="M113 523L113 527L113.722 526.222L113.889 525L113.722 524.278L113.722 523.778L113 523z"/>
<path style="fill:#312e28; stroke:none;" d="M144.667 523.333L145 523.667L145.333 523.667L145 523.333L144.667 523.333M150.333 523.667L150.333 524L150.667 524.333L150.667 523.667L150.333 523.667z"/>
<path style="fill:#ea6080; stroke:none;" d="M158 523L158 526L158.694 525.25L158.694 524.194L158.694 523.75L158 523z"/>
<path style="fill:#312e28; stroke:none;" d="M168.333 523.667L168.333 524L168.667 524.333L168.667 523.667L168.333 523.667z"/>
<path style="fill:#ea6080; stroke:none;" d="M170 524L170 527L171 528L173 528L172.333 526.972L171.667 526.194L171 525L172.833 524.833L173.667 524.75L174.333 524.778L175.167 524.611L175.583 524.667L177 524L176.222 523.278L175.694 523.25L174.889 523.056L173.056 523.056L172.056 523.25L171.5 523.278L170 524z"/>
<path style="fill:#312e28; stroke:none;" d="M178 523L177 525L177 524L176 524L176.167 525.5L176.194 527L176 529L177.167 528.639L177.444 528.278L178.028 527.667L178.972 526.028L179.389 525.056L179.667 524.5L180 523L178 523z"/>
<path style="fill:#ea6080; stroke:none;" d="M184 523L185 524L184 523M188 523L187.75 524.444L187.417 525.556L187 527L188.444 527.722L189 527.75L191 528L190.333 526.972L189.667 526.194L189 525L193 525L192.222 524.028L191.694 523.861L190.944 523.444L189.5 523.083L188 523M195 523L195.75 525L195.972 526L196.083 526.5L196 528L197.25 527.639L197.667 527.278L198.444 526.694L200.083 525.389L201.028 524.944L201.944 524.722L202.944 524.722L205 525L204.222 524.028L203.694 523.861L202.889 523.444L201.028 523.139L200.083 523.167L198.389 523.222L196.833 523.139L196.417 523.056L195 523z"/>
<path style="fill:#312e28; stroke:none;" d="M205 525L203 524.417L202 524.222L201.5 524.083L200 524L200.972 525.417L201.389 526.222L201.667 526.583L202 528L208 528L207.333 526.972L206.667 526.194L206 525L207.194 525.722L207.583 526.25L209 528L213 528L212.944 526L212.75 525L212.722 524.5L212 523L210.5 523.167L208.944 523.222L208.028 523.194L206.333 523.333L205.361 523.861L205 525M232 524L232.056 526L232.25 527L232.278 527.5L233 529L234.5 528.833L235.056 528.806L237 528.611L238.944 528.333L239.5 528.222L241 528L240.944 526L240.75 525L240.722 524.5L240 523L238.5 523.056L237.944 523.139L236.944 523.194L235.056 523.389L233.5 523.639L232 524z"/>
<path style="fill:#dcd6c4; stroke:none;" d="M144.333 524.667L144.333 525L144.667 525.333L144.667 524.667L144.333 524.667z"/>
<path style="fill:#312e28; stroke:none;" d="M173 524L173 528L173.722 527.222L173.722 526.722L173.889 526L173.722 524.778L173 524M195 524L195 527L195.694 526.25L195.694 525.194L195.694 524.75L195 524z"/>
<path style="fill:#ea6080; stroke:none;" d="M210 524L210 527L210.694 526.25L210.694 525.194L210.694 524.75L210 524z"/>
<path style="fill:#dcd6c4; stroke:none;" d="M154 525L154 527L156 527L156 525L154 525M171 525L171 527L173 527L173 525L171 525z"/>
<path style="fill:#ea6080; stroke:none;" d="M233 525L233 527L235 527L235 525L233 525M238 525L238 527L240 527L240 525L238 525z"/>
<path style="fill:#312e28; stroke:none;" d="M137 526L138 527L137 526M140 526L141 527L140 526M150.333 526.667L150.333 527L150.667 527.333L150.667 527L150.333 526.667z"/>
<path style="fill:#ea6080; stroke:none;" d="M151 526L151 528L153 528L153 526L151 526z"/>
<path style="fill:#312e28; stroke:none;" d="M158.333 526.667L158.333 527L158.667 527.333L158.667 527L158.333 526.667M168 526L167 528L169 528L169 526L168 526z"/>
<path style="fill:#ea6080; stroke:none;" d="M174.333 526.667L174.333 527L174.667 527.333L174.667 526.667L174.333 526.667z"/>
<path style="fill:#312e28; stroke:none;" d="M200 526L199 528L201 528L201 526L200 526z"/>
<path style="fill:#ea6080; stroke:none;" d="M182 527L183 528L182 527M186 527L187 528L186 527z"/>
<path style="fill:#312e28; stroke:none;" d="M192.667 527.333L193 527.667L193.333 527.667L193 527.333L192.667 527.333z"/>
<path style="fill:#ea6080; stroke:none;" d="M206 528L207 529L206 528M176.667 529.333L177 529.667L177.333 529.667L177 529.333L176.667 529.333M115 532L116 533L115 532M122 532L123 533L122 532M254.667 532.333L255 532.667L255.333 532.667L255 532.333L254.667 532.333M117 533L118 534L117 533M125 533L126 534L125 533M253 533L254 534L253 533M119 534L120 535L119 534M129 534L130 535L129 534M122 535L123 536L122 535M244.667 535.333L245 535.667L245.333 535.667L245 535.333L244.667 535.333M125 536L126 537L125 536M238 536L238.722 536.722L239.25 536.75L241 537L240.278 536.278L239.75 536.25L238 536M133.667 538.333L134 538.667L134.333 538.667L134 538.333L133.667 538.333M162 538L162.722 538.722L163.25 538.75L165 539L164.278 538.278L163.75 538.25L162 538M262 538L262.778 538.722L263.306 538.75L264.111 538.944L264.972 538.972L265.944 539L268 539L267.222 538.278L266.694 538.25L265.889 538.056L265.028 538.028L264.056 538L262 538M179 539L179.722 539.722L180.25 539.75L182 540L181.278 539.278L180.75 539.25L179 539M192 539L192.778 539.722L193.306 539.75L194.111 539.944L195.028 539.972L196.944 540L197.944 540L200 540L199.222 539.278L198.694 539.25L197.889 539.056L196.972 539.028L195.056 539L194.056 539L192 539M149 540L149.722 540.722L150.25 540.75L152 541L151.278 540.278L150.75 540.25L149 540M238 540L238.778 540.722L239.306 540.75L240.111 540.944L241.028 540.972L242 541L244 541L246 541L251 541L250.222 540.278L249.694 540.25L248.889 540.056L247.972 540.028L247 540L245 540L243 540L238 540M163.667 541.333L164 541.667L164.333 541.667L164.333 541.333L163.667 541.333M219 541L219.778 541.722L220.306 541.75L221.056 541.944L221.972 541.972L224 542L223.222 541.278L222.694 541.25L221.944 541.056L221.028 541.028L219 541M179 542L179.778 542.722L180.306 542.75L181.111 542.944L182.028 542.972L184 543L185 543L187 543L200 543L199.222 542.278L198.694 542.25L197.889 542.056L196.972 542.028L195 542L194 542L192 542L179 542z"/>
</svg>
